<?xml version="1.0" encoding="UTF-8" standalone="no"?>
<svg
   xmlns:dc="http://purl.org/dc/elements/1.1/"
   xmlns:cc="http://creativecommons.org/ns#"
   xmlns:rdf="http://www.w3.org/1999/02/22-rdf-syntax-ns#"
   xmlns:svg="http://www.w3.org/2000/svg"
   xmlns="http://www.w3.org/2000/svg"
   viewBox="0 0 85.333336 85.333336"
   height="85.333336"
   width="85.333336"
   xml:space="preserve"
   id="svg2"
   version="1.1"><metadata
     id="metadata8"><rdf:RDF><cc:Work
         rdf:about=""><dc:format>image/svg+xml</dc:format><dc:type
           rdf:resource="http://purl.org/dc/dcmitype/StillImage" /></cc:Work></rdf:RDF></metadata><defs
     id="defs6" /><g
     transform="matrix(1.3333333,0,0,-1.3333333,0,85.333333)"
     id="g10"><g
       transform="scale(0.1)"
       id="g12"><path
         id="path14"
         style="fill:#4f5d73;fill-opacity:1;fill-rule:nonzero;stroke:none"
         d="M 320,640 C 496.73,640 640,496.73 640,320 640,143.27 496.73,0 320,0 143.27,0 0,143.27 0,320 0,496.73 143.27,640 320,640" /><path
         id="path16"
         style="fill:#3c495b;fill-opacity:1;fill-rule:nonzero;stroke:none"
         d="m 426.145,222.453 c -12.559,4.524 -33.161,5.527 -42.707,9.047 -6.532,2.512 -16.583,5.023 -19.594,9.043 -3.52,4.02 -3.52,31.652 -3.52,31.652 0,0 8.039,7.539 11.055,15.578 3.016,8.04 5.527,30.649 5.527,30.649 0,0 0.5,0 1.504,0 2.516,0 6.535,1.508 8.543,12.058 2.512,12.563 7.035,19.594 6.031,29.141 -1.007,6.531 -3.519,7.539 -5.023,7.539 -1.008,0 -1.512,0 -1.512,0 0,0 6.535,9.543 6.535,41.703 0,33.16 -25.625,66.321 -73.359,66.321 -47.23,0 -72.852,-33.161 -72.852,-66.321 0,-32.16 6.532,-41.703 6.532,-41.703 0,0 -0.504,0 -1.508,0 -1.508,0 -4.524,-1.008 -5.024,-7.539 -1.507,-9.547 3.516,-16.078 6.028,-29.141 2.012,-10.55 6.531,-12.058 8.543,-12.058 1.004,0 1.508,0 1.508,0 0,0 2.007,-22.609 5.527,-30.649 3.516,-8.543 11.051,-15.578 11.051,-15.578 0,0 0,-28.136 -3.516,-31.652 -3.519,-4.02 -13.062,-6.531 -19.598,-9.043 -9.043,-3.52 -29.64,-5.027 -42.707,-9.047 -12.558,-4.519 -51.75,-23.109 -51.75,-73.859 h 315.536 c 0.503,50.75 -38.688,69.34 -51.25,73.859 v 0" /><path
         id="path18"
         style="fill:#3c495b;fill-opacity:1;fill-rule:nonzero;stroke:none"
         d="m 193.387,236.523 c 10.051,5.024 20.097,5.024 28.136,6.028 0,0 4.524,7.035 -10.046,9.547 0,0 -19.094,5.023 -21.606,7.539 -2.012,2.511 -1.008,17.586 -1.008,17.586 0,0 27.133,1.004 37.684,10.55 -17.582,26.125 -8.039,57.278 -12.059,85.415 -3.515,28.64 -20.597,46.73 -53.258,46.73 0,0 0,0 -1.003,0 v 0 c -31.657,0 -48.235,-18.09 -51.754,-46.73 -3.516,-28.637 7.035,-62.805 -11.055,-85.918 10.051,-9.043 35.172,-9.547 37.684,-9.547 v 0 0 c 0,0 1.007,-16.078 -1.004,-19.09 -2.008,-3.016 -9.043,-5.028 -13.567,-6.031 -10.047,-2.012 -20.5974,-5.528 -29.1404,-8.543 -8.5429,-3.012 -25.625,-20.598 -25.625,-42.204 h 90.9414 c 3.016,10.047 20.098,26.629 36.68,34.668 v 0" /><path
         id="path20"
         style="fill:#3c495b;fill-opacity:1;fill-rule:nonzero;stroke:none"
         d="m 483.297,202.859 h 90.945 c 0,21.606 -16.582,39.192 -25.625,42.207 -8.543,3.012 -19.094,6.532 -29.144,8.539 -4.52,1.004 -11.051,3.516 -13.567,6.032 -2.008,2.511 -1.004,19.09 -1.004,19.09 v 0 0 c 3.016,0 28.137,0.503 38.188,9.546 -18.09,23.114 -7.539,57.282 -11.559,85.918 -3.515,28.641 -20.097,46.227 -51.75,46.227 v 0 h -1.004 c -32.66,0 -50.246,-18.09 -53.761,-46.727 -3.52,-28.64 5.527,-59.289 -12.059,-85.418 10.551,-9.546 37.684,-10.55 37.684,-10.55 0,0 1.504,-15.075 -1.008,-17.586 -2.008,-2.512 -21.606,-7.535 -21.606,-7.535 -14.066,-2.512 -10.047,-9.547 -10.047,-9.547 7.536,-1.004 17.586,-1.004 28.137,-6.032 17.586,-8.539 34.668,-25.121 37.18,-34.164 v 0" /><path
         id="path22"
         style="fill:#ffffff;fill-opacity:1;fill-rule:nonzero;stroke:none"
         d="m 426.145,238.668 c -12.559,4.523 -33.161,5.527 -42.707,9.043 -6.532,2.512 -16.583,5.023 -19.594,9.047 -3.52,4.019 -3.52,31.652 -3.52,31.652 0,0 8.039,7.535 11.055,15.574 3.016,8.039 5.527,30.653 5.527,30.653 0,0 0.5,0 1.504,0 2.516,0 6.535,1.508 8.543,12.058 2.512,12.559 7.035,19.594 6.031,29.141 -1.007,6.531 -3.519,7.535 -5.023,7.535 -1.008,0 -1.512,0 -1.512,0 0,0 6.535,9.547 6.535,41.703 0,33.164 -25.625,66.324 -73.359,66.324 -47.23,0 -72.852,-33.16 -72.852,-66.324 0,-32.156 6.532,-41.703 6.532,-41.703 0,0 -0.504,0 -1.508,0 -1.508,0 -4.524,-1.004 -5.024,-7.535 -1.507,-9.547 3.516,-16.078 6.028,-29.141 2.012,-10.554 6.531,-12.058 8.543,-12.058 1.004,0 1.508,0 1.508,0 0,0 2.007,-22.614 5.527,-30.653 3.516,-8.539 11.051,-15.574 11.051,-15.574 0,0 0,-28.137 -3.516,-31.652 -3.519,-4.024 -13.062,-6.535 -19.598,-9.047 -9.043,-3.516 -29.64,-5.023 -42.707,-9.043 -12.558,-4.523 -51.75,-23.113 -51.75,-73.859 h 315.536 c 0.503,50.746 -38.688,69.336 -51.25,73.859 v 0" /><path
         id="path24"
         style="fill:#ffffff;fill-opacity:1;fill-rule:nonzero;stroke:none"
         d="m 193.387,252.734 c 10.051,5.028 20.097,5.028 28.136,6.032 0,0 4.524,7.035 -10.046,9.547 0,0 -19.094,5.023 -21.606,7.535 -2.012,2.511 -1.008,17.586 -1.008,17.586 0,0 27.133,1.004 37.684,10.55 -17.582,26.129 -8.039,57.282 -12.059,85.418 -3.515,28.641 -20.597,46.727 -53.258,46.727 0,0 0,0 -1.003,0 v 0 c -31.657,0 -48.235,-18.086 -51.754,-46.727 -3.516,-28.64 7.035,-62.804 -11.055,-85.918 10.051,-9.046 35.172,-9.546 37.684,-9.546 v 0 0 c 0,0 1.007,-16.079 -1.004,-19.094 -2.008,-3.016 -9.043,-5.024 -13.567,-6.028 -10.047,-2.011 -20.5974,-5.527 -29.1404,-8.543 -8.5429,-3.015 -25.625,-20.601 -25.625,-42.207 h 90.9414 c 3.016,10.051 20.098,26.629 36.68,34.668 v 0" /><path
         id="path26"
         style="fill:#ffffff;fill-opacity:1;fill-rule:nonzero;stroke:none"
         d="m 483.297,219.074 h 90.945 c 0,21.606 -16.582,39.188 -25.625,42.203 -8.543,3.016 -19.094,6.532 -29.144,8.543 -4.52,1.004 -11.051,3.516 -13.567,6.028 -2.008,2.511 -1.004,19.093 -1.004,19.093 v 0 0 c 3.016,0 28.137,0.504 38.188,9.547 -18.09,23.114 -7.539,57.278 -11.559,85.918 -3.515,28.641 -20.097,46.227 -51.75,46.227 v 0 h -1.004 c -32.66,0 -50.246,-18.09 -53.761,-46.731 -3.52,-28.636 5.527,-59.289 -12.059,-85.414 10.551,-9.547 37.684,-10.55 37.684,-10.55 0,0 1.504,-15.075 -1.008,-17.586 -2.008,-2.512 -21.606,-7.536 -21.606,-7.536 -14.066,-2.515 -10.047,-9.546 -10.047,-9.546 7.536,-1.008 17.586,-1.008 28.137,-6.032 17.586,-8.543 34.668,-25.121 37.18,-34.164 v 0" /></g></g></svg>