<?xml version="1.0" encoding="UTF-8" standalone="no"?>
<svg width="980px" height="714px" viewBox="0 0 980 714" version="1.1" xmlns="http://www.w3.org/2000/svg" xmlns:xlink="http://www.w3.org/1999/xlink" xmlns:sketch="http://www.bohemiancoding.com/sketch/ns">
    <!-- Generator: Sketch 3.3 (11970) - http://www.bohemiancoding.com/sketch -->
    <title>Reset-password-Btn</title>
    <desc>Created with Sketch.</desc>
    <defs>
        <radialGradient cx="48.9062673%" cy="34.3094985%" fx="48.9062673%" fy="34.3094985%" r="50%" id="radialGradient-1">
            <stop stop-color="#FFFFFF" stop-opacity="0.991" offset="0%"></stop>
            <stop stop-color="#FFFFFF" stop-opacity="0.616" offset="51.4%"></stop>
            <stop stop-color="#8D8D8D" stop-opacity="0" offset="100%"></stop>
        </radialGradient>
        <radialGradient cx="13.6048385%" cy="52.0220032%" fx="13.6048385%" fy="52.0220032%" r="9.93382684%" id="radialGradient-2">
            <stop stop-color="#FFFFFF" offset="0%"></stop>
            <stop stop-color="#FFFFFF" stop-opacity="0" offset="100%"></stop>
        </radialGradient>
        <radialGradient cx="83.1456267%" cy="47.8543948%" fx="83.1456267%" fy="47.8543948%" r="5.89832963%" id="radialGradient-3">
            <stop stop-color="#FFFFFF" offset="0%"></stop>
            <stop stop-color="#FFFFFF" stop-opacity="0" offset="100%"></stop>
        </radialGradient>
    </defs>
    <g id="Page-1" stroke="none" stroke-width="1" fill="none" fill-rule="evenodd" sketch:type="MSPage">
        <g id="Reset-password-Btn" sketch:type="MSLayerGroup" transform="translate(-3.000000, 0.000000)">
            <g id="Group" transform="translate(36.240316, 15.889108)" fill-opacity="0.95" fill="#757575" sketch:type="MSShapeGroup">
                <path d="M459.855457,16.5168859 L821.007173,201.209707 C825.249813,203.379391 827.8252,206.149294 826.75946,207.396459 C825.693721,208.643623 821.390429,207.895774 817.147788,205.726089 L455.996073,21.0332685 C453.958685,19.9913494 452.20805,18.7541887 451.129287,17.5939476 C450.050524,16.4337066 449.731999,15.445426 450.243786,14.8465164 C451.309525,13.5993518 455.612817,14.3472017 459.855457,16.5168859" id="Shape"></path>
                <path d="M7.16700774,330.327598 L478.500585,4.82080268 C484.0376,0.996894761 490.063251,-0.720034458 491.959252,0.985933938 C493.855253,2.69190233 490.903627,7.17475282 485.366612,10.9986607 L14.0330349,336.505456 C8.49601931,340.329364 2.47036878,342.046293 0.57436773,340.340325 C-1.32163332,338.634356 1.62999215,334.151506 7.16700774,330.327598" id="Shape"></path>
            </g>
            <g id="Group" transform="translate(404.833708, 378.547295)"></g>
            <g id="Group" transform="translate(493.530988, 461.078619) rotate(-9.598338) translate(-493.530988, -461.078619) translate(24.030988, 279.078619)" fill="#F7B36B" sketch:type="MSShapeGroup">
                <path d="M907.022582,0.394491538 C924.378395,0.394491538 938.448061,9.64862563 938.448061,21.0641785 L938.448061,219.609038 L938.448061,342.560712 C938.448061,353.976265 924.378395,363.230399 907.022582,363.230399 L31.6459959,363.230399 C14.2901834,363.230399 0.220517474,353.976265 0.220517474,342.560712 L0.220517474,21.0641785 C0.220517474,9.64862563 14.2901834,0.394491538 31.6459959,0.394491538 L907.022582,0.394491538 Z" id="Shape"></path>
            </g>
            <g id="Group" transform="translate(429.209934, 0.168656)" sketch:type="MSShapeGroup">
                <path d="M56.4811948,72.3619296 C30.9605451,80.6179227 6.34898057,79.3605129 1.50972692,69.5534263 C-3.32952674,59.7463396 13.4360574,45.1033203 38.9567071,36.8473272 C64.4773568,28.5913342 89.0889213,29.8487439 93.928175,39.6558305 C98.7674286,49.4629172 82.0018445,64.1059365 56.4811948,72.3619296 L56.4811948,72.3619296 L56.4811948,72.3619296 Z" id="Shape" opacity="0.62" fill="url(#radialGradient-1)"></path>
                <path d="M105.352959,34.7025442 C105.352959,47.5593647 92.5123314,57.981877 76.6726141,57.981877 C60.8328968,57.981877 47.9922688,47.5593647 47.9922688,34.7025442 C47.9922688,21.8457236 60.8328968,11.4232113 76.6726141,11.4232113 C92.5123314,11.4232113 105.352959,21.8457236 105.352959,34.7025442 L105.352959,34.7025442 Z" id="Shape" fill="#666666"></path>
                <path d="M73.6432122,49.9847885 C62.9733088,55.1356011 50.1062592,53.5836334 44.9038526,46.5183716 C39.701446,39.4531099 44.1337279,29.550025 54.8036313,24.3992125 C65.4735348,19.2483999 78.3405843,20.8003677 83.5429909,27.8656294 C88.7453975,34.9308911 84.3131156,44.833976 73.6432122,49.9847885 L73.6432122,49.9847885 L73.6432122,49.9847885 Z" id="Shape" opacity="0.303" fill="url(#radialGradient-1)"></path>
                <path d="M98.0764632,29.9665138 C98.0764632,37.8983852 90.1545925,44.3284375 80.3824698,44.3284375 C70.6103471,44.3284375 62.6884765,37.8983852 62.6884765,29.9665138 C62.6884765,22.0346423 70.6103471,15.6045901 80.3824698,15.6045901 C90.1545925,15.6045901 98.0764632,22.0346423 98.0764632,29.9665138 L98.0764632,29.9665138 Z" id="Shape" fill="#4D4D4D"></path>
                <path d="M60.9961762,49.6271343 C54.890474,45.6685738 53.2469635,43.4258546 54.1763128,38.8736087 C56.8239714,44.7709553 60.7275201,49.2905179 60.9961762,49.6271343 L60.9961762,49.6271343 Z" id="Shape" opacity="0.74" fill="url(#radialGradient-2)"></path>
                <path d="M106.168416,16.2532808 C105.359582,24.4363783 96.3334621,30.5817283 86.0080135,29.9793042 C75.6825649,29.3768801 67.9678248,22.2548077 68.7766593,14.0717102 C69.5854938,5.88861273 78.6116136,-0.256737245 88.9370623,0.345686854 C99.2625109,0.948110953 106.977251,8.07018337 106.168416,16.2532808 L106.168416,16.2532808 L106.168416,16.2532808 Z" id="Shape" fill="#666666"></path>
                <path d="M91.7810117,2.08691409 C100.833247,6.7269356 103.428859,9.36502989 102.747354,14.7421453 C98.2572272,7.79627762 92.2014418,2.48278562 91.7810117,2.08691409 L91.7810117,2.08691409 Z" id="Shape" fill="url(#radialGradient-3)"></path>
            </g>
            <path d="M337.660406,372.444602 L348.359625,372.444602 C355.535442,372.444602 360.734609,371.112584 363.957281,368.448508 C367.179953,365.784433 368.791265,361.831347 368.791265,356.589133 C368.791265,351.260982 367.051048,347.436801 363.570562,345.116477 C360.090076,342.796153 354.847941,341.636008 347.844,341.636008 L337.660406,341.636008 L337.660406,372.444602 Z M337.660406,385.206321 L337.660406,422.846946 L322.256109,422.846946 L322.256109,328.616477 L348.87525,328.616477 C361.035467,328.616477 370.03733,330.893798 375.881109,335.448508 C381.724888,340.003219 384.646734,346.87815 384.646734,356.073508 C384.646734,367.804036 378.545233,376.161374 366.342047,381.145774 L392.961187,422.846946 L375.429937,422.846946 L352.871344,385.206321 L337.660406,385.206321 Z M436.144781,424.136008 C425.058788,424.136008 416.38993,420.902642 410.137945,414.435813 C403.885961,407.968984 400.760015,399.0638 400.760015,387.719993 C400.760015,376.075403 403.660377,366.923151 409.461187,360.262962 C415.261998,353.602772 423.232621,350.272727 433.373297,350.272727 C442.7835,350.272727 450.217019,353.130121 455.674078,358.844993 C461.131137,364.559865 463.859625,372.423068 463.859625,382.434837 L463.859625,390.620383 L416.357672,390.620383 C416.572517,397.538387 418.441638,402.855716 421.965094,406.572532 C425.488549,410.289347 430.45139,412.147727 436.853765,412.147727 C441.064724,412.147727 444.985583,411.75027 448.616461,410.955344 C452.247338,410.160419 456.146713,408.839143 460.314703,406.991477 L460.314703,419.302024 C456.619372,421.063752 452.881128,422.309833 449.099859,423.040305 C445.31859,423.770778 441.000274,424.136008 436.144781,424.136008 L436.144781,424.136008 Z M433.373297,361.745383 C428.560773,361.745383 424.704366,363.270759 421.803961,366.321555 C418.903556,369.372352 417.174081,373.819573 416.615484,379.663352 L448.970953,379.663352 C448.885015,373.776604 447.46706,369.318641 444.717047,366.289329 C441.967033,363.260017 438.185821,361.745383 433.373297,361.745383 L433.373297,361.745383 Z M528.957281,402.544212 C528.957281,409.505184 526.42215,414.843998 521.351812,418.560813 C516.281474,422.277629 509.019828,424.136008 499.566656,424.136008 C490.070515,424.136008 482.443638,422.69657 476.685797,419.817649 L476.685797,406.733665 C485.064745,410.600872 492.863495,412.534446 500.082281,412.534446 C509.406546,412.534446 514.068609,409.720021 514.068609,404.091087 C514.068609,402.28639 513.552989,400.782499 512.521734,399.579368 C511.490479,398.376237 509.79323,397.130156 507.429937,395.841087 C505.066644,394.552018 501.779568,393.091095 497.568609,391.458274 C489.361537,388.278571 483.807882,385.098915 480.907476,381.919212 C478.007071,378.739508 476.55689,374.614549 476.55689,369.544212 C476.55689,363.442619 479.016827,358.705361 483.936773,355.332298 C488.85672,351.959234 495.549036,350.272727 504.013922,350.272727 C512.39287,350.272727 520.320525,351.969976 527.797125,355.364524 L522.898687,366.772727 C515.207243,363.593024 508.74051,362.003196 503.498297,362.003196 C495.506069,362.003196 491.510015,364.280517 491.510015,368.835227 C491.510015,371.069613 492.551997,372.960219 494.635992,374.507102 C496.719987,376.053985 501.263887,378.180917 508.267828,380.887962 C514.154576,383.165317 518.429924,385.24928 521.094,387.139915 C523.758076,389.030549 525.734618,391.211191 527.023687,393.681907 C528.312756,396.152622 528.957281,399.106694 528.957281,402.544212 L528.957281,402.544212 Z M576.459234,424.136008 C565.373241,424.136008 556.704383,420.902642 550.452398,414.435813 C544.200414,407.968984 541.074469,399.0638 541.074469,387.719993 C541.074469,376.075403 543.97483,366.923151 549.77564,360.262962 C555.576451,353.602772 563.547074,350.272727 573.68775,350.272727 C583.097953,350.272727 590.531473,353.130121 595.988531,358.844993 C601.44559,364.559865 604.174078,372.423068 604.174078,382.434837 L604.174078,390.620383 L556.672125,390.620383 C556.88697,397.538387 558.756092,402.855716 562.279547,406.572532 C565.803002,410.289347 570.765843,412.147727 577.168219,412.147727 C581.379177,412.147727 585.300036,411.75027 588.930914,410.955344 C592.561791,410.160419 596.461167,408.839143 600.629156,406.991477 L600.629156,419.302024 C596.933825,421.063752 593.195581,422.309833 589.414312,423.040305 C585.633043,423.770778 581.314727,424.136008 576.459234,424.136008 L576.459234,424.136008 Z M573.68775,361.745383 C568.875226,361.745383 565.018819,363.270759 562.118414,366.321555 C559.218009,369.372352 557.488534,373.819573 556.929937,379.663352 L589.285406,379.663352 C589.199468,373.776604 587.781514,369.318641 585.0315,366.289329 C582.281486,363.260017 578.500274,361.745383 573.68775,361.745383 L573.68775,361.745383 Z M647.93775,411.889915 C651.633081,411.889915 655.328356,411.309842 659.023687,410.14968 L659.023687,421.557883 C657.347898,422.288356 655.18874,422.900654 652.546148,423.394798 C649.903557,423.888941 647.164327,424.136008 644.328375,424.136008 C629.976741,424.136008 622.801031,416.573584 622.801031,401.448508 L622.801031,363.034446 L613.068609,363.034446 L613.068609,356.331321 L623.510015,350.788352 L628.666265,335.706321 L638.011969,335.706321 L638.011969,351.56179 L658.314703,351.56179 L658.314703,363.034446 L638.011969,363.034446 L638.011969,401.190696 C638.011969,404.843058 638.925045,407.53932 640.751226,409.279563 C642.577407,411.019806 644.972891,411.889915 647.93775,411.889915 L647.93775,411.889915 Z M284.896734,504.104758 C284.896734,513.944651 281.67411,521.485592 275.228765,526.727805 C268.783421,531.970019 259.609684,534.591087 247.707281,534.591087 L237.910406,534.591087 L237.910406,569.846946 L222.506109,569.846946 L222.506109,475.616477 L249.640875,475.616477 C261.414371,475.616477 270.233619,478.022703 276.098883,482.835227 C281.964146,487.647751 284.896734,494.737524 284.896734,504.104758 L284.896734,504.104758 Z M237.910406,521.636008 L246.095953,521.636008 C254.002242,521.636008 259.802966,520.261022 263.498297,517.511008 C267.193628,514.760995 269.041265,510.464163 269.041265,504.620383 C269.041265,499.206294 267.386985,495.167272 264.078375,492.503196 C260.769765,489.83912 255.613566,488.507102 248.609625,488.507102 L237.910406,488.507102 L237.910406,521.636008 Z M346.707281,569.846946 L343.677984,559.921165 L343.162359,559.921165 C339.724842,564.26103 336.265892,567.215102 332.785406,568.783469 C329.30492,570.351837 324.836215,571.136008 319.379156,571.136008 C312.375215,571.136008 306.907496,569.245402 302.975836,565.464133 C299.044175,561.682865 297.078375,556.333309 297.078375,549.415305 C297.078375,542.067612 299.806863,536.524699 305.263922,532.786399 C310.72098,529.048099 319.03535,527.007104 330.207281,526.663352 L342.517828,526.276633 L342.517828,522.473899 C342.517828,517.919189 341.454362,514.513949 339.327398,512.258079 C337.200435,510.002208 333.902616,508.87429 329.433844,508.87429 C325.781482,508.87429 322.279563,509.411394 318.927984,510.485618 C315.576405,511.559842 312.353781,512.827407 309.260015,514.288352 L304.361578,503.460227 C308.228785,501.440686 312.461164,499.904568 317.058844,498.851829 C321.656523,497.799089 325.996323,497.272727 330.078375,497.272727 C339.144826,497.272727 345.987531,499.24927 350.606695,503.202415 C355.225859,507.155559 357.535406,513.364482 357.535406,521.829368 L357.535406,569.846946 L346.707281,569.846946 Z M324.148687,559.534446 C329.648715,559.534446 334.06371,557.998329 337.393805,554.926048 C340.723899,551.853767 342.388922,547.546192 342.388922,542.003196 L342.388922,535.815696 L333.236578,536.202415 C326.10373,536.460229 320.915305,537.652599 317.671148,539.779563 C314.426991,541.906527 312.804937,545.161377 312.804937,549.544212 C312.804937,552.723915 313.75024,555.183851 315.640875,556.924094 C317.531509,558.664337 320.367418,559.534446 324.148687,559.534446 L324.148687,559.534446 Z M426.564703,549.544212 C426.564703,556.505184 424.029572,561.843998 418.959234,565.560813 C413.888896,569.277629 406.62725,571.136008 397.174078,571.136008 C387.677937,571.136008 380.05106,569.69657 374.293219,566.817649 L374.293219,553.733665 C382.672167,557.600872 390.470917,559.534446 397.689703,559.534446 C407.013968,559.534446 411.676031,556.720021 411.676031,551.091087 C411.676031,549.28639 411.160411,547.782499 410.129156,546.579368 C409.097901,545.376237 407.400652,544.130156 405.037359,542.841087 C402.674066,541.552018 399.38699,540.091095 395.176031,538.458274 C386.968959,535.278571 381.415303,532.098915 378.514898,528.919212 C375.614493,525.739508 374.164312,521.614549 374.164312,516.544212 C374.164312,510.442619 376.624249,505.705361 381.544195,502.332298 C386.464142,498.959234 393.156458,497.272727 401.621344,497.272727 C410.000292,497.272727 417.927947,498.969976 425.404547,502.364524 L420.506109,513.772727 C412.814665,510.593024 406.347932,509.003196 401.105719,509.003196 C393.113491,509.003196 389.117437,511.280517 389.117437,515.835227 C389.117437,518.069613 390.159419,519.960219 392.243414,521.507102 C394.327409,523.053985 398.871309,525.180917 405.87525,527.887962 C411.761998,530.165317 416.037346,532.24928 418.701422,534.139915 C421.365498,536.030549 423.34204,538.211191 424.631109,540.681907 C425.920178,543.152622 426.564703,546.106694 426.564703,549.544212 L426.564703,549.544212 Z M483.219,565.560813 C478.148662,569.277629 470.887016,571.136008 461.433844,571.136008 C451.937702,571.136008 444.310826,569.69657 438.552984,566.817649 L438.552984,553.733665 C446.931932,557.600872 454.730682,559.534446 461.949469,559.534446 C471.273734,559.534446 475.935797,556.720021 475.935797,551.091087 C475.935797,549.28639 475.420177,547.782499 474.388922,546.579368 C473.357667,545.376237 471.660418,544.130156 469.297125,542.841087 C466.933832,541.552018 463.646755,540.091095 459.435797,538.458274 C451.228724,535.278571 445.675069,532.098915 442.774664,528.919212 C439.874259,525.739508 438.424078,521.614549 438.424078,516.544212 C438.424078,510.442619 440.884014,505.705361 445.803961,502.332298 C450.723907,498.959234 457.416223,497.272727 465.881109,497.272727 C474.260057,497.272727 482.187712,498.969976 489.664312,502.364524 L484.765875,513.772727 C477.07443,510.593024 470.607698,509.003196 465.365484,509.003196 C457.373257,509.003196 453.377203,511.280517 453.377203,515.835227 C453.377203,518.069613 454.419185,519.960219 456.50318,521.507102 C458.587174,523.053985 463.131074,525.180917 470.135015,527.887962 C476.021764,530.165317 480.297112,532.24928 482.961187,534.139915 C485.625263,536.030549 487.601806,538.211191 488.890875,540.681907 C490.179944,543.152622 490.824469,546.106694 490.824469,549.544212 C490.824469,556.505184 488.289338,561.843998 483.219,565.560813 Z M565.654547,569.846946 L556.43775,536.589133 C555.320557,533.065678 553.301046,524.880213 550.379156,512.032493 L549.799078,512.032493 C547.306878,523.634113 545.330335,531.862547 543.86939,536.71804 L534.394781,569.846946 L517.636969,569.846946 L497.6565,498.56179 L513.12525,498.56179 L522.21314,533.688743 C524.275651,542.368474 525.736574,549.801993 526.595953,555.989524 L526.982672,555.989524 C527.412361,552.85279 528.067628,549.254193 528.948492,545.193626 C529.829356,541.133058 530.592043,538.09305 531.236578,536.073508 L542.064703,498.56179 L558.693609,498.56179 L569.199469,536.073508 C569.844003,538.178988 570.649659,541.401612 571.616461,545.741477 C572.583262,550.081343 573.152593,553.454356 573.324469,555.860618 L573.840094,555.860618 C574.484628,550.575435 575.988519,543.184884 578.351812,533.688743 L587.568609,498.56179 L602.779547,498.56179 L582.670172,569.846946 L565.654547,569.846946 Z M678.254156,534.075462 C678.254156,545.720051 675.267858,554.807851 669.295172,561.339133 C663.322486,567.870416 655.008116,571.136008 644.351812,571.136008 C637.691623,571.136008 631.804963,569.632117 626.691656,566.62429 C621.578349,563.616462 617.646748,559.298146 614.896734,553.669212 C612.14672,548.040277 610.771734,541.509093 610.771734,534.075462 C610.771734,522.51681 613.736548,513.493463 619.666265,507.005149 C625.595983,500.516835 633.953321,497.272727 644.738531,497.272727 C655.051083,497.272727 663.215064,500.59203 669.230719,507.230735 C675.246374,513.86944 678.254156,522.817593 678.254156,534.075462 L678.254156,534.075462 Z M626.36939,534.075462 C626.36939,550.532575 632.449408,558.761008 644.609625,558.761008 C656.640935,558.761008 662.6565,550.532575 662.6565,534.075462 C662.6565,517.790224 656.597967,509.647727 644.480719,509.647727 C638.121312,509.647727 633.512959,511.753175 630.655523,515.964133 C627.798087,520.175092 626.36939,526.212141 626.36939,534.075462 L626.36939,534.075462 Z M731.814703,497.272727 C734.865499,497.272727 737.379146,497.487569 739.355719,497.917258 L737.873297,512.032493 C735.724848,511.516865 733.490496,511.259055 731.170172,511.259055 C725.111548,511.259055 720.202417,513.235598 716.442633,517.188743 C712.682848,521.141888 710.802984,526.276602 710.802984,532.59304 L710.802984,569.846946 L695.6565,569.846946 L695.6565,498.56179 L707.515875,498.56179 L709.513922,511.130149 L710.287359,511.130149 C712.650652,506.876222 715.733629,503.503208 719.536383,501.011008 C723.339136,498.518809 727.431869,497.272727 731.814703,497.272727 L731.814703,497.272727 Z M773.967047,571.136008 C765.072471,571.136008 758.133087,567.913384 753.148687,561.46804 C748.164287,555.022695 745.672125,545.977864 745.672125,534.333274 C745.672125,522.645716 748.196514,513.547174 753.245367,507.037376 C758.29422,500.527577 765.287315,497.272727 774.224859,497.272727 C783.592094,497.272727 790.724835,500.731677 795.623297,507.64968 L796.396734,507.64968 C795.666262,502.536374 795.301031,498.497351 795.301031,495.532493 L795.301031,469.557883 L810.511969,469.557883 L810.511969,569.846946 L798.652594,569.846946 L796.010015,560.501243 L795.301031,560.501243 C790.445538,567.591122 783.334281,571.136008 773.967047,571.136008 L773.967047,571.136008 Z M778.027594,558.889915 C784.258093,558.889915 788.791251,557.138956 791.627203,553.636985 C794.463155,550.135014 795.924078,544.452454 796.010015,536.589133 L796.010015,534.46218 C796.010015,525.481667 794.549093,519.100871 791.627203,515.319602 C788.705313,511.538333 784.129187,509.647727 777.898687,509.647727 C772.570536,509.647727 768.467061,511.806885 765.58814,516.125266 C762.70922,520.443647 761.269781,526.598859 761.269781,534.591087 C761.269781,542.497376 762.666252,548.523683 765.459234,552.670188 C768.252217,556.816693 772.441628,558.889915 778.027594,558.889915 L778.027594,558.889915 Z" id="---Reset-" fill="#FFFFFF" sketch:type="MSShapeGroup" transform="translate(516.509039, 449.876243) rotate(-9.000000) translate(-516.509039, -449.876243) "></path>
        </g>
    </g>
</svg>