<?xml version="1.0" encoding="utf-8"?>
<!-- Generator: Adobe Illustrator 18.0.0, SVG Export Plug-In . SVG Version: 6.00 Build 0)  -->
<!DOCTYPE svg PUBLIC "-//W3C//DTD SVG 1.1//EN" "http://www.w3.org/Graphics/SVG/1.1/DTD/svg11.dtd">
<svg version="1.1" id="Lager_1" xmlns:sketch="http://www.bohemiancoding.com/sketch/ns"
	 xmlns="http://www.w3.org/2000/svg" xmlns:xlink="http://www.w3.org/1999/xlink" x="0px" y="0px" viewBox="0 0 841.9 595.3"
	 enable-background="new 0 0 841.9 595.3" xml:space="preserve">
<g>
	<g>
		<g>
			<g>
				<g opacity="0.3452">
					<path d="M433.7,365.9c20,0,44.1,0,60.1,0c16,0,25.8-3.7,36.4-11.8c26.3-19.9,46.9-44.7,59.8-74.9c20.5-47.8,28.2-98,20.8-149.6
						c-5.7-39.6-24.7-72.5-59.6-93.5C482.7-5.1,409.8-9.7,334.9,16c-28.7,9.8-53.8,26.1-72.6,50.6c-24.6,32.1-33.9,69-34,108.8
						c0,14.9,5.4,19.8,20.8,19.9c36.3,0.2,72.7,0.4,109,0.6c13.5,0.1,16.6-1.9,21.6-14.5c4.7-11.6,12.8-19.1,25.1-21.1
						c10-1.6,20.1-2.8,30.2-2.5c15.5,0.4,27,9.7,28.8,24c3.8,29.5-5.5,42-28.2,49c-2,0.6-4.1,1.1-6.1,1.8
						c-21.1,7.4-40.9,16.6-56,34.1c-18.3,21.2-25.2,46.5-28.5,73.4c-2,16.3,5.7,25.8,22.2,25.9C389.3,366,411.5,365.9,433.7,365.9z
						 M429,595.2c19.2,0,38.5,0.1,57.7,0c14.2-0.1,22.6-8.1,22.7-22.3c0.2-38.7,0.3-77.5,0-116.3c-0.1-14.3-8.5-22.1-22.8-22.1
						c-38.5-0.1-77-0.1-115.5,0c-14.3,0-22.5,7.9-22.6,22.3c-0.2,38.7-0.3,77.5,0,116.3c0.1,14.4,8.4,22.1,22.8,22.2
						C390.5,595.2,409.8,595.2,429,595.2z"/>
				</g>
			</g>
		</g>
	</g>
</g>
<title>field12</title>
<desc>Created with Sketch.</desc>
<title>field12</title>
<desc>Created with Sketch.</desc>
<title>field12</title>
<desc>Created with Sketch.</desc>
</svg>
