<?xml version="1.0" encoding="utf-8"?>
<!-- Generator: Adobe Illustrator 18.0.0, SVG Export Plug-In . SVG Version: 6.00 Build 0)  -->
<!DOCTYPE svg PUBLIC "-//W3C//DTD SVG 1.1//EN" "http://www.w3.org/Graphics/SVG/1.1/DTD/svg11.dtd">
<svg version="1.1" id="Lager_1" xmlns:sketch="http://www.bohemiancoding.com/sketch/ns"
	 xmlns="http://www.w3.org/2000/svg" xmlns:xlink="http://www.w3.org/1999/xlink" x="0px" y="0px" viewBox="81.4 267.6 67.2 59.9"
	 enable-background="new 81.4 267.6 67.2 59.9" xml:space="preserve">
<title>field9</title>
<desc>Created with Sketch.</desc>
<g id="Page-1" sketch:type="MSPage">
	<g id="field9" transform="translate(0.700400, 0.500000)" sketch:type="MSLayerGroup">
		<path id="Shape" sketch:type="MSShapeGroup" fill-opacity="0.3452" d="M147.4,320.7L118,269.3c-0.8-1.3-2.2-2.2-3.7-2.2
			c-1.5,0-3,0.8-3.7,2.2l-29.3,51.3c-0.8,1.3-0.8,3,0,4.3c0.8,1.3,2.2,2.1,3.7,2.1h58.7c1.5,0,2.9-0.8,3.7-2.1
			C148.1,323.6,148.1,322,147.4,320.7L147.4,320.7z M118.6,318.5H110V310h8.6V318.5L118.6,318.5z M118.6,305.7H110v-17.1h8.6V305.7
			L118.6,305.7z"/>
	</g>
</g>
</svg>
