<?xml version="1.0" encoding="utf-8"?>
<!-- Generator: Adobe Illustrator 18.0.0, SVG Export Plug-In . SVG Version: 6.00 Build 0)  -->
<!DOCTYPE svg PUBLIC "-//W3C//DTD SVG 1.1//EN" "http://www.w3.org/Graphics/SVG/1.1/DTD/svg11.dtd">
<svg version="1.1" id="Lager_1" xmlns:sketch="http://www.bohemiancoding.com/sketch/ns"
	 xmlns="http://www.w3.org/2000/svg" xmlns:xlink="http://www.w3.org/1999/xlink" x="0px" y="0px" viewBox="77.8 257.1 63 79.5"
	 enable-background="new 77.8 257.1 63 79.5" xml:space="preserve">
<title>field11</title>
<desc>Created with Sketch.</desc>
<g id="Page-1" sketch:type="MSPage">
	<g id="field11" transform="translate(0.700400, 0.500000)" sketch:type="MSLayerGroup">
		<g id="Group" transform="translate(244.000000, 45.000000)" sketch:type="MSShapeGroup">
			<path id="Shape" fill-opacity="0.3452" d="M-113.8,251.6c-0.3-4.2-2.4-8-5.4-10.9c-4.9-4.7-6.9-9.5-6.9-18.4
				c-3,2.9-4.1,5.6-5.1,8.3c0.1,4.1,0.5,8.2,1.5,12.1c0.6,2.6,1.4,5.2,2.5,7.6c1.1,2.5,2.8,5,3.3,7.7c1,5-1.6,8.8-4.8,12.5
				c0.9-0.3,1.7-0.5,2.4-0.9C-120.9,267-113.1,259.5-113.8,251.6L-113.8,251.6z"/>
			<path id="Shape_1_" fill-opacity="0.3452" d="M-131.1,271.1c1.3-1.5,2.6-2.9,3.8-4.5c3.3-4.8,1.8-8.7-0.4-13.5
				c-3.5-7.8-4.8-15.6-5.1-23.9c-1.5-6.4-4.5-12.3-8.5-17.6c0.3,1.2,0.5,4,0.6,5.2c0.7,8.1-1.1,13.8-7.3,20.9
				c2.6,7.2,7.1,13.1,9.1,20.5c1.2,4.4,1.4,8.7,1,13.1C-135.6,271.5-133.2,271.4-131.1,271.1L-131.1,271.1z"/>
			<path id="Shape_2_" fill-opacity="0.3452" d="M-141.2,256.4c-2.2-6.2-9.8-20.2-12.1-26.3c0,4.8-0.6,8.9-1.1,10.8
				c-1.3,4.7-2.5,9.5-2.5,13.5c0,6.8,7.6,12.9,12.3,15.2c1.4,0.7,3.2,1.2,5.2,1.5C-139.1,266.2-139.5,261.3-141.2,256.4
				L-141.2,256.4z"/>
			<path id="Shape_3_" fill-opacity="0.3452" d="M-106.6,291.1l-0.8-0.2l-58.7-14.3l-0.8-0.2l0.2-0.7l2.2-6.6l0.2-0.7l0.8,0.2
				l58.7,14.3l0.8,0.2l-0.2,0.7l-2.2,6.6L-106.6,291.1z"/>
			<path id="Shape_4_" fill-opacity="0.3452" d="M-107.1,269.3l-25.3,6.2l14.7,3.6l12.8-3.1L-107.1,269.3z"/>
			<path id="Shape_5_" fill-opacity="0.3452" d="M-165.9,283.6l2.2,6.6l25.3-6.2l-14.7-3.6L-165.9,283.6z"/>
		</g>
	</g>
</g>
</svg>
