<?xml version="1.0" encoding="utf-8"?>
<!-- Generator: Adobe Illustrator 18.0.0, SVG Export Plug-In . SVG Version: 6.00 Build 0)  -->
<!DOCTYPE svg PUBLIC "-//W3C//DTD SVG 1.1//EN" "http://www.w3.org/Graphics/SVG/1.1/DTD/svg11.dtd">
<svg version="1.1" id="Lager_1" xmlns:sketch="http://www.bohemiancoding.com/sketch/ns"
	 xmlns="http://www.w3.org/2000/svg" xmlns:xlink="http://www.w3.org/1999/xlink" x="0px" y="0px" viewBox="72.7 259.5 76.4 76.3"
	 enable-background="new 72.7 259.5 76.4 76.3" xml:space="preserve">
<title>field8</title>
<desc>Created with Sketch.</desc>
<g id="Page-1" sketch:type="MSPage">
	<g id="field8" transform="translate(0.700400, 0.500000)" sketch:type="MSLayerGroup">
		<path id="Shape" sketch:type="MSShapeGroup" fill-opacity="0.3452" d="M110.2,259C89.1,259,72,276.1,72,297.1s17.1,38.2,38.2,38.2
			c2.6,0,5.1-0.3,7.5-0.7c-1-0.5-1.1-4-0.1-6c1.1-2.2,4.5-7.9,1.1-9.8c-3.4-1.9-2.4-2.8-4.5-5s-1.2-2.5-1.3-3.1
			c-0.4-1.9,2-4.8,2.1-5.2s0.1-1.4,0.1-1.7s-1.5-1.2-1.9-1.3s-0.6,0.6-1.1,0.6s-2.8-1.4-3.3-1.7s-0.7-1.3-1.4-1.9
			c-0.7-0.7-0.7-0.2-1.8-0.6c-1-0.4-4.4-1.7-7-2.7c-2.6-1-2.8-2.5-2.8-3.5s-1.6-2.5-2.3-3.6c-0.7-1.1-0.9-2.6-1.1-2.2
			s1.3,4.3,1.1,4.4c-0.3,0.1-0.8-1.1-1.6-2s0.8-0.4-1.6-5.2c-2.4-4.7,0.7-7.1,0.9-9.5c0.2-2.4,2,0.9,1-0.7s0.1-4.8-0.7-6
			c-0.7-1.2-5,1.3-5,1.3c0.1-1.1,3.7-3.1,6.3-5c2.6-1.8,4.2-0.4,6.3,0.3c2.1,0.7,2.2,0.4,1.5-0.2c-0.7-0.7,0.3-1,1.9-0.7
			c1.7,0.3,2.1,2.2,4.6,2c2.5-0.2,0.3,0.5,0.6,1.1s-0.4,0.6-2,1.7s0,1.1,3,3.2c2.9,2.1,2-1.4,1.7-3c-0.3-1.6,2.1-0.3,2.1-0.3
			c1.8,1.2,1.5,0.1,2.8,0.5c1.3,0.4,4.8,3.4,4.8,3.4c-4.4,2.4-1.7,2.7-0.9,3.2c0.8,0.6-1.5,1.7-1.5,1.7c-0.9-0.9-1.1,0-1.7,0.4
			s0,1.2,0,1.2c-3.1,0.5-2.4,3.7-2.4,4.5s-2,2-2.5,3.1s1.3,3.5,0.4,3.7s-1.9-3.7-7.2-2.2c-1.6,0.4-5.1,2.2-3.2,5.9
			c1.8,3.7,5-1,6-0.5c1,0.5-0.3,2.9-0.1,2.9c0.2,0,3,0.1,3.1,3.3s4.1,2.9,5,3c0.9,0.1,3.7-2.4,4.1-2.4c0.4-0.1,2-1.5,5.6,0.6
			s5.4,1.7,6.6,2.6c1.2,0.9,0.4,2.6,1.5,3.1c1.1,0.5,5.8-0.2,6.9,1.7s-4.8,11.4-6.6,12.5c-1.9,1-2.7,3.4-4.6,5
			c-1.8,1.5-4.5,3.4-7,4.8c-2.2,1.3-2.6,3.6-3.5,4.4c17.1-3.8,29.9-19,29.9-37.2C148.4,276.1,131.3,259,110.2,259L110.2,259z
			 M119.1,294.8c-0.5,0.2-1.6,1.1-4.3-0.4c-2.7-1.6-4.5-1.3-4.7-1.5c0,0-0.2-0.6,0.9-0.7c2.4-0.2,5.4,2.2,6,2.2s1-0.7,2.2-0.3
			C120.6,294.4,119.7,294.6,119.1,294.8L119.1,294.8z M106.7,262.8c-0.3-0.2,0.2-0.4,0.5-0.8c0.2-0.2,0-0.6,0.3-0.8
			c0.6-0.6,3.3-1.3,2.8,0.2C109.6,262.9,107.1,263.1,106.7,262.8L106.7,262.8z M113.3,267.6c-0.9,0-3.1-0.3-2.7-0.7
			c1.6-1.6-0.6-2-1.9-2.1s-1.9-0.9-1.2-0.9c0.7-0.1,3.3,0,3.8,0.4c0.5,0.4,2.9,1.3,3,2C114.4,267.1,114.3,267.7,113.3,267.6
			L113.3,267.6z M121.4,267.4c-0.7,0.6-4.5-2.1-5.2-2.8c-3.1-2.7-4.8-1.8-5.5-2.2c-0.7-0.4-0.4-1,0.6-1.9c1-0.9,3.8,0.3,5.5,0.5
			s3.5,1.5,3.6,3C120.4,265.4,122.2,266.8,121.4,267.4L121.4,267.4z"/>
	</g>
</g>
</svg>
