<?xml version="1.0" encoding="utf-8"?>
<!-- Generator: Adobe Illustrator 18.0.0, SVG Export Plug-In . SVG Version: 6.00 Build 0)  -->
<!DOCTYPE svg PUBLIC "-//W3C//DTD SVG 1.1//EN" "http://www.w3.org/Graphics/SVG/1.1/DTD/svg11.dtd">
<svg version="1.1" id="Lager_1" xmlns:sketch="http://www.bohemiancoding.com/sketch/ns"
	 xmlns="http://www.w3.org/2000/svg" xmlns:xlink="http://www.w3.org/1999/xlink" x="0px" y="0px" viewBox="81.6 265.6 71.7 64.2"
	 enable-background="new 81.6 265.6 71.7 64.2" xml:space="preserve">
<title>field10</title>
<desc>Created with Sketch.</desc>
<g id="Page-1" sketch:type="MSPage">
	<g id="field10" transform="translate(0.700400, 0.500000)" sketch:type="MSLayerGroup">
		<path id="Shape" sketch:type="MSShapeGroup" fill-opacity="0.3452" d="M99.7,329.2h8.8v-31.4l-8.8,8.8V329.2L99.7,329.2z
			 M87.5,318.8v10.4h8.8V310l-6.1,6.1L87.5,318.8L87.5,318.8z M111.9,329.2h8.8v-24.3l-8.8-8.8V329.2L111.9,329.2z M124,306v23.2
			h8.8v-32.1l-6.9,6.9L124,306L124,306z M136.2,329.2h8.8V285l-8.8,8.8V329.2L136.2,329.2z M132.7,267l5.9,5.9l0,0l-15.7,15.7
			l-11.8-11.8l-30.2,30.1l6.3,6.3l23.9-23.9l11.8,11.8l21.9-21.9l5.9,5.9l1.9-19.9L132.7,267L132.7,267z"/>
	</g>
</g>
</svg>
