<?xml version="1.0" encoding="utf-8"?>
<!-- Generator: Adobe Illustrator 18.0.0, SVG Export Plug-In . SVG Version: 6.00 Build 0)  -->
<!DOCTYPE svg PUBLIC "-//W3C//DTD SVG 1.1//EN" "http://www.w3.org/Graphics/SVG/1.1/DTD/svg11.dtd">
<svg version="1.1" id="Lager_1" xmlns:sketch="http://www.bohemiancoding.com/sketch/ns"
	 xmlns="http://www.w3.org/2000/svg" xmlns:xlink="http://www.w3.org/1999/xlink" x="0px" y="0px" viewBox="59.4 265.3 101.1 65"
	 enable-background="new 59.4 265.3 101.1 65" xml:space="preserve">
<title>field2</title>
<desc>Created with Sketch.</desc>
<g id="Page-1" sketch:type="MSPage">
	<g id="field2" transform="translate(0.700400, 0.500000)" sketch:type="MSLayerGroup">
		<g id="Group" transform="translate(186.000000, 70.000000)" sketch:type="MSShapeGroup">
			<g id="Shape" transform="translate(59.625000, 0.000000)">
				<path fill-opacity="0.3452" d="M-115.3,245c-2.5-0.9-6.6-1.1-8.5-1.8c-1.3-0.5-3.3-1-3.9-1.8c-0.7-0.8-0.7-6.3-0.7-6.3
					s1.6-1.5,2.2-3.1s1.1-6.1,1.1-6.1s0.1,0,0.3,0c0.5,0,1.3-0.3,1.7-2.4c0.5-2.5,1.4-3.9,1.2-5.8c-0.2-1.3-0.7-1.5-1-1.5
					c-0.2,0-0.3,0-0.3,0s1.3-1.9,1.3-8.3c0-6.6-5.1-13.2-14.6-13.2c-9.4,0-14.5,6.6-14.5,13.2c0,6.4,1.3,8.3,1.3,8.3s-0.1,0-0.3,0
					c-0.3,0-0.9,0.2-1,1.5c-0.3,1.9,0.7,3.2,1.2,5.8c0.4,2.1,1.3,2.4,1.7,2.4c0.2,0,0.3,0,0.3,0s0.4,4.5,1.1,6.1
					c0.7,1.7,2.2,3.1,2.2,3.1s0,5.6-0.7,6.3c-0.7,0.8-2.6,1.3-3.9,1.8c-1.8,0.7-5.9,1-8.5,1.8c-2.5,0.9-10.3,4.6-10.3,14.7h62.8
					C-105,249.6-112.8,245.9-115.3,245L-115.3,245z"/>
			</g>
			<path id="Shape_1_" fill-opacity="0.3452" d="M-102,242.2c2-1,4-1,5.6-1.2c0,0,0.9-1.4-2-1.9c0,0-3.8-1-4.3-1.5
				c-0.4-0.5-0.2-3.5-0.2-3.5s5.4-0.2,7.5-2.1c-3.5-5.2-1.6-11.4-2.4-17c-0.7-5.7-4.1-9.3-10.6-9.3c0,0,0,0-0.2,0l0,0
				c-6.3,0-9.6,3.6-10.3,9.3s1.4,12.5-2.2,17.1c2,1.8,7,1.9,7.5,1.9h0l0,0c0,0,0.2,3.2-0.2,3.8s-1.8,1-2.7,1.2
				c-2,0.4-4.1,1.1-5.8,1.7c-1.7,0.6-5.1,4.1-5.1,8.4h18.1C-108.7,247.1-105.3,243.8-102,242.2L-102,242.2z"/>
			<path id="Shape_2_" fill-opacity="0.3452" d="M-44.3,248.9h18.1c0-4.3-3.3-7.8-5.1-8.4c-1.7-0.6-3.8-1.3-5.8-1.7
				c-0.9-0.2-2.2-0.7-2.7-1.2c-0.4-0.5-0.2-3.8-0.2-3.8l0,0h0c0.6,0,5.6-0.1,7.6-1.9c-3.6-4.6-1.5-11.4-2.3-17.1
				c-0.7-5.7-4-9.2-10.3-9.2l0,0h-0.2c-6.5,0-10,3.6-10.7,9.3c-0.7,5.7,1.1,11.8-2.4,17c2.1,1.9,7.5,2.1,7.5,2.1s0.3,3-0.2,3.5
				c-0.4,0.5-4.3,1.5-4.3,1.5c-2.8,0.5-2,1.9-2,1.9c1.5,0.2,3.5,0.2,5.6,1.2C-48.2,243.8-44.8,247.1-44.3,248.9L-44.3,248.9z"/>
		</g>
	</g>
</g>
</svg>
