<?xml version="1.0" encoding="utf-8"?>
<!-- Generator: Adobe Illustrator 18.0.0, SVG Export Plug-In . SVG Version: 6.00 Build 0)  -->
<!DOCTYPE svg PUBLIC "-//W3C//DTD SVG 1.1//EN" "http://www.w3.org/Graphics/SVG/1.1/DTD/svg11.dtd">
<svg version="1.1" id="Lager_1" xmlns:sketch="http://www.bohemiancoding.com/sketch/ns"
	 xmlns="http://www.w3.org/2000/svg" xmlns:xlink="http://www.w3.org/1999/xlink" x="0px" y="0px" viewBox="80.7 267.7 55.8 56.5"
	 enable-background="new 80.7 267.7 55.8 56.5" xml:space="preserve">
<title>field1</title>
<desc>Created with Sketch.</desc>
<g id="Page-1" sketch:type="MSPage">
	<g id="field1" transform="translate(0.700400, 0.500000)" sketch:type="MSLayerGroup">
		<g id="person" transform="translate(253.000000, 78.500000)" sketch:type="MSShapeGroup">
			<path id="Shape" fill-opacity="0.3452" d="M-131.1,216.4c-2.6,5.6-8.4,10.2-14,10.2c-6.8,0-11.8-4.6-14.4-10.1
				c-15.4,7.3-13.4,25.9-13.4,25.9c0,2.5,2.2,2.9,4.7,2.9h23.1h23.1c2.5,0,4.7-0.4,4.7-2.9C-117.3,242.3-115.8,223.7-131.1,216.4
				L-131.1,216.4z"/>
			<path id="Shape_1_" fill-opacity="0.3452" d="M-131.5,203.5c0-8.1-6.3-14.8-14.1-14.8s-14.1,6.6-14.1,14.8s6.5,18,14.2,18
				C-137.7,221.5-131.5,211.7-131.5,203.5z"/>
		</g>
	</g>
</g>
</svg>
