<?xml version="1.0" encoding="utf-8"?>
<!-- Generator: Adobe Illustrator 18.0.0, SVG Export Plug-In . SVG Version: 6.00 Build 0)  -->
<!DOCTYPE svg PUBLIC "-//W3C//DTD SVG 1.1//EN" "http://www.w3.org/Graphics/SVG/1.1/DTD/svg11.dtd">
<svg version="1.1" id="Lager_1" xmlns:sketch="http://www.bohemiancoding.com/sketch/ns"
	 xmlns="http://www.w3.org/2000/svg" xmlns:xlink="http://www.w3.org/1999/xlink" x="0px" y="0px" viewBox="63.9 257.7 93.5 81.1"
	 enable-background="new 63.9 257.7 93.5 81.1" xml:space="preserve">
<title>field12</title>
<desc>Created with Sketch.</desc>
<g id="Page-1" sketch:type="MSPage">
	<g id="field12" transform="translate(0.700400, 0.500000)" sketch:type="MSLayerGroup">
		<path id="Shape" sketch:type="MSShapeGroup" fill-opacity="0.3452" d="M110.1,269.7c3.3-0.1,5.9-2.7,6-6c0.1-3.6-2.8-6.5-6.4-6.4
			c-3.3,0.1-5.9,2.7-6,6C103.6,266.9,106.5,269.8,110.1,269.7L110.1,269.7z M155.4,307.2h-1.7l-12.4-24c1.7-0.2,3.5-0.9,5.1-1.6
			c2.4-1.1,2.8-4.2,1.1-6l-0.1-0.1c-1.1-1.1-2.7-1.5-4.2-0.8c-1.4,0.6-3.3,1.3-5.2,1.3c-5.5,0-7.9-6.2-28-6.2s-22.5,6.2-28,6.2
			c-1.9,0-3.8-0.6-5.2-1.3c-1.5-0.6-3.1-0.3-4.2,0.8l-0.1,0.1c-1.7,1.8-1.3,4.9,1.1,6c1.6,0.8,3.3,1.4,5.1,1.6l-12.4,24h-1.7
			c-0.8,0-1.4,0.7-1.3,1.5c1.1,6.2,9,11,18.6,11s17.6-4.8,18.6-11c0.1-0.8-0.5-1.5-1.3-1.5h-1.7l-12.4-23.9
			c8.1-0.7,12.4-4.8,18.6-4.8v47.4c-3.4,0-6.2,2.8-6.2,6.2h-7c-2.7,0-5.6,2.8-5.6,6.2h49.9c0-3.4-2.8-6.2-6.9-6.2h-5.6
			c0-3.4-2.8-6.2-6.2-6.2v-47.4c6.2,0,10.5,4.1,18.6,4.8l-12.4,23.9h-1.7c-0.8,0-1.4,0.7-1.3,1.5c1.1,6.2,9,11,18.6,11
			s17.6-4.8,18.6-11C156.7,307.8,156.1,307.2,155.4,307.2L155.4,307.2z M91.2,307.2H72.5l9.4-17.6L91.2,307.2L91.2,307.2z
			 M128.6,307.2l9.4-17.6l9.4,17.6H128.6L128.6,307.2z"/>
	</g>
</g>
</svg>
