<?xml version="1.0" encoding="utf-8"?>
<!-- Generator: Adobe Illustrator 18.0.0, SVG Export Plug-In . SVG Version: 6.00 Build 0)  -->
<!DOCTYPE svg PUBLIC "-//W3C//DTD SVG 1.1//EN" "http://www.w3.org/Graphics/SVG/1.1/DTD/svg11.dtd">
<svg version="1.1" id="Lager_1" xmlns:sketch="http://www.bohemiancoding.com/sketch/ns"
	 xmlns="http://www.w3.org/2000/svg" xmlns:xlink="http://www.w3.org/1999/xlink" x="0px" y="0px" viewBox="83.4 256.5 61.7 77"
	 enable-background="new 83.4 256.5 61.7 77" xml:space="preserve">
<title>field6</title>
<desc>Created with Sketch.</desc>
<g id="Page-1" sketch:type="MSPage">
	<g id="field6" transform="translate(0.700400, 0.500000)" sketch:type="MSLayerGroup">
		<path id="Shape" sketch:type="MSShapeGroup" fill-opacity="0.3452" d="M92.9,261.1c-5.7,0-10.3,4.6-10.3,10.3
			c0,3.8,2.1,7.1,5.2,8.8v33.6c-3.1,1.8-5.2,5.1-5.2,8.8c0,5.7,4.6,10.3,10.3,10.3s10.3-4.6,10.3-10.3c0-3.8-2.1-7.1-5.2-8.8v-33.6
			c3.1-1.8,5.2-5.1,5.2-8.8C103.2,265.7,98.6,261.1,92.9,261.1L92.9,261.1z M92.9,327.8c-2.8,0-5.2-2.3-5.2-5.1s2.3-5.1,5.2-5.1
			c2.8,0,5.2,2.3,5.2,5.1C98.1,325.5,95.8,327.8,92.9,327.8L92.9,327.8z M92.9,276.5c-2.8,0-5.2-2.3-5.2-5.1s2.3-5.1,5.2-5.1
			c2.8,0,5.2,2.3,5.2,5.1S95.8,276.5,92.9,276.5L92.9,276.5z M139.2,313.8v-32.2c0-15.4-15.4-15.4-15.4-15.4h-5.2V256l-15.4,15.4
			l15.4,15.4v-10.3h5.2c4.5,0,5.2,5.1,5.2,5.1v32.2c-3.1,1.8-5.2,5.1-5.2,8.8c0,5.7,4.6,10.3,10.3,10.3c5.7,0,10.3-4.6,10.3-10.3
			C144.4,318.9,142.3,315.6,139.2,313.8L139.2,313.8z M134.1,327.8c-2.8,0-5.2-2.3-5.2-5.1s2.3-5.1,5.2-5.1c2.8,0,5.2,2.3,5.2,5.1
			C139.2,325.5,136.9,327.8,134.1,327.8L134.1,327.8z"/>
	</g>
</g>
</svg>
