<?xml version="1.0" encoding="utf-8"?>
<!-- Generator: Adobe Illustrator 18.0.0, SVG Export Plug-In . SVG Version: 6.00 Build 0)  -->
<!DOCTYPE svg PUBLIC "-//W3C//DTD SVG 1.1//EN" "http://www.w3.org/Graphics/SVG/1.1/DTD/svg11.dtd">
<svg version="1.1" id="Lager_1" xmlns:sketch="http://www.bohemiancoding.com/sketch/ns"
	 xmlns="http://www.w3.org/2000/svg" xmlns:xlink="http://www.w3.org/1999/xlink" x="0px" y="0px" viewBox="82.9 260.3 48.7 77.9"
	 enable-background="new 82.9 260.3 48.7 77.9" xml:space="preserve">
<title>field5</title>
<desc>Created with Sketch.</desc>
<g id="Page-1" sketch:type="MSPage">
	<g id="field5" transform="translate(0.700400, 0.500000)" sketch:type="MSLayerGroup">
		<path id="Shape" sketch:type="MSShapeGroup" fill-opacity="0.3452" d="M126,259.8H87.1c-2.7,0-4.9,2.2-4.9,4.9v68.2
			c0,2.7,2.2,4.9,4.9,4.9H126c2.7,0,4.9-2.2,4.9-4.9v-68.2C130.9,262,128.7,259.8,126,259.8L126,259.8z M104.1,264.6h4.9
			c1.3,0,2.4,1.1,2.4,2.4c0,1.4-1.1,2.4-2.4,2.4h-4.9c-1.3,0-2.4-1.1-2.4-2.4C101.7,265.7,102.8,264.6,104.1,264.6L104.1,264.6z
			 M109,332.8h-4.9c-1.3,0-2.4-1.1-2.4-2.4c0-1.4,1.1-2.4,2.4-2.4h4.9c1.3,0,2.4,1.1,2.4,2.4C111.4,331.7,110.3,332.8,109,332.8
			L109,332.8z M126,323.1H87.1v-48.7H126L126,323.1L126,323.1z"/>
	</g>
</g>
</svg>
