<?xml version="1.0" encoding="utf-8"?>
<!-- Generator: Adobe Illustrator 18.0.0, SVG Export Plug-In . SVG Version: 6.00 Build 0)  -->
<!DOCTYPE svg PUBLIC "-//W3C//DTD SVG 1.1//EN" "http://www.w3.org/Graphics/SVG/1.1/DTD/svg11.dtd">
<svg version="1.1"
	 id="svg2" xmlns:svg="http://www.w3.org/2000/svg" xmlns:rdf="http://www.w3.org/1999/02/22-rdf-syntax-ns#" xmlns:cc="http://creativecommons.org/ns#" xmlns:dc="http://purl.org/dc/elements/1.1/"
	 xmlns="http://www.w3.org/2000/svg" xmlns:xlink="http://www.w3.org/1999/xlink" x="0px" y="0px" viewBox="8.8 19.8 67.8 43.5"
	 enable-background="new 8.8 19.8 67.8 43.5" xml:space="preserve">
<g id="g10" transform="matrix(1.3333333,0,0,-1.3333333,0,85.333333)">
	<g id="g12" transform="scale(0.1)">
		<path id="path22" fill="#333333" d="M426.1,238.7c-12.6,4.5-33.2,5.5-42.7,9c-6.5,2.5-16.6,5-19.6,9c-3.5,4-3.5,31.7-3.5,31.7
			s8,7.5,11.1,15.6c3,8,5.5,30.7,5.5,30.7s0.5,0,1.5,0c2.5,0,6.5,1.5,8.5,12.1c2.5,12.6,7,19.6,6,29.1c-1,6.5-3.5,7.5-5,7.5
			c-1,0-1.5,0-1.5,0s6.5,9.5,6.5,41.7c0,33.2-25.6,66.3-73.4,66.3c-47.2,0-72.9-33.2-72.9-66.3c0-32.2,6.5-41.7,6.5-41.7
			s-0.5,0-1.5,0c-1.5,0-4.5-1-5-7.5c-1.5-9.5,3.5-16.1,6-29.1c2-10.6,6.5-12.1,8.5-12.1c1,0,1.5,0,1.5,0s2-22.6,5.5-30.7
			c3.5-8.5,11.1-15.6,11.1-15.6s0-28.1-3.5-31.7c-3.5-4-13.1-6.5-19.6-9c-9-3.5-29.6-5-42.7-9c-12.6-4.5-51.8-23.1-51.8-73.9h315.5
			C477.9,215.6,438.7,234.1,426.1,238.7L426.1,238.7"/>
		<path id="path24" fill="#333333" d="M193.4,252.7c10.1,5,20.1,5,28.1,6c0,0,4.5,7-10,9.5c0,0-19.1,5-21.6,7.5
			c-2,2.5-1,17.6-1,17.6s27.1,1,37.7,10.5c-17.6,26.1-8,57.3-12.1,85.4c-3.5,28.6-20.6,46.7-53.3,46.7c0,0,0,0-1,0l0,0
			c-31.7,0-48.2-18.1-51.8-46.7c-3.5-28.6,7-62.8-11.1-85.9c10.1-9,35.2-9.5,37.7-9.5l0,0l0,0c0,0,1-16.1-1-19.1c-2-3-9-5-13.6-6
			c-10-2-20.6-5.5-29.1-8.5c-8.5-3-25.6-20.6-25.6-42.2h90.9C159.7,228.1,176.8,244.7,193.4,252.7L193.4,252.7"/>
		<path id="path26" fill="#333333" d="M483.3,219.1h90.9c0,21.6-16.6,39.2-25.6,42.2c-8.5,3-19.1,6.5-29.1,8.5
			c-4.5,1-11.1,3.5-13.6,6c-2,2.5-1,19.1-1,19.1l0,0l0,0c3,0,28.1,0.5,38.2,9.5c-18.1,23.1-7.5,57.3-11.6,85.9
			c-3.5,28.6-20.1,46.2-51.8,46.2l0,0h-1c-32.7,0-50.2-18.1-53.8-46.7c-3.5-28.6,5.5-59.3-12.1-85.4c10.6-9.5,37.7-10.5,37.7-10.5
			s1.5-15.1-1-17.6c-2-2.5-21.6-7.5-21.6-7.5c-14.1-2.5-10-9.5-10-9.5c7.5-1,17.6-1,28.1-6C463.7,244.7,480.8,228.1,483.3,219.1
			L483.3,219.1"/>
	</g>
</g>
</svg>
