<?xml version="1.0" encoding="utf-8"?>
<!-- Generator: Adobe Illustrator 18.0.0, SVG Export Plug-In . SVG Version: 6.00 Build 0)  -->
<!DOCTYPE svg PUBLIC "-//W3C//DTD SVG 1.1//EN" "http://www.w3.org/Graphics/SVG/1.1/DTD/svg11.dtd">
<svg version="1.1" id="Lager_1" xmlns:sketch="http://www.bohemiancoding.com/sketch/ns"
	 xmlns="http://www.w3.org/2000/svg" xmlns:xlink="http://www.w3.org/1999/xlink" x="0px" y="0px" viewBox="720.3 275.2 28.4 52.8"
	 enable-background="new 720.3 275.2 28.4 52.8" xml:space="preserve">
<title>field2</title>
<desc>Created with Sketch.</desc>
<g id="Page-1" sketch:type="MSPage">
	<g id="field2" transform="translate(0.700400, 0.500000)" sketch:type="MSLayerGroup">
		<path id="_x32_" sketch:type="MSShapeGroup" opacity="0.35" enable-background="new    " d="M747.9,327.5H720v-7.2l9.3-13.1
			c2.5-3.6,4.3-6.3,5.2-8c1-1.7,1.7-3.4,2.1-5c0.4-1.6,0.7-3.2,0.7-5c0-2-0.4-3.5-1.3-4.5s-2-1.5-3.5-1.5c-1.3,0-2.4,0.3-3.5,1
			c-1.1,0.7-2.4,1.9-4,3.6l-5.4-5.7c2.5-2.8,4.8-4.8,6.9-5.8c2.1-1,4.5-1.6,6.9-1.6c4.2,0,7.5,1.2,9.9,3.7c2.4,2.5,3.5,5.9,3.5,10.3
			c0,2-0.2,3.9-0.6,5.7c-0.4,1.8-1.1,3.6-1.9,5.4c-0.9,1.8-1.9,3.7-3.2,5.6c-1.3,1.9-4.7,6.4-10.1,13.3v0.3h17L747.9,327.5
			L747.9,327.5z"/>
	</g>
</g>
</svg>
