<?xml version="1.0" encoding="utf-8"?>
<!-- Generator: Adobe Illustrator 18.0.0, SVG Export Plug-In . SVG Version: 6.00 Build 0)  -->
<!DOCTYPE svg PUBLIC "-//W3C//DTD SVG 1.1//EN" "http://www.w3.org/Graphics/SVG/1.1/DTD/svg11.dtd">
<svg version="1.1" id="Lager_1" xmlns:sketch="http://www.bohemiancoding.com/sketch/ns"
	 xmlns="http://www.w3.org/2000/svg" xmlns:xlink="http://www.w3.org/1999/xlink" x="0px" y="0px" viewBox="0 0 841.9 595.3"
	 enable-background="new 0 0 841.9 595.3" xml:space="preserve">
<title>field8</title>
<desc>Created with Sketch.</desc>
<g id="Page-1" sketch:type="MSPage">
	<g id="field8" transform="translate(0.700400, 0.500000)" sketch:type="MSLayerGroup">
		<path id="_x38_" sketch:type="MSShapeGroup" opacity="0.35" enable-background="new    " d="M419.7,6c44.7,0,79.6,12,106.8,38.2
			c26.2,25.1,40.3,58.9,40.3,102.5c0,26.2-6.5,51.2-18.5,72c-12,21.8-33.8,42.5-63.2,62.1c33.8,24,56.7,48,70.9,72
			c14.2,24,20.7,52.3,20.7,80.7c0,46.9-14.2,83.9-42.5,112.3c-28.3,28.3-66.5,42.5-113.4,42.5c-49.1,0-87.2-13.1-115.6-39.2
			c-28.3-26.2-41.4-64.3-41.4-112.3c0-32.7,6.5-62.1,20.7-87.2c14.2-25.1,34.9-46.9,64.3-65.4c-27.3-21.8-45.8-43.6-57.8-65.4
			s-17.4-46.9-17.4-74.1c0-42.5,13.1-76.3,41.4-102.5C342.3,19.1,377.2,6,419.7,6L419.7,6z M364.1,433.4c0,22.9,4.4,41.4,14.2,54.5
			c9.8,13.1,22.9,19.6,40.3,19.6c18.5,0,33.8-6.5,42.5-19.6c9.8-13.1,14.2-31.6,14.2-54.5c0-16.4-3.3-31.6-10.9-46.9
			c-7.6-14.2-21.8-31.6-43.6-50.2l-5.5-5.5c-17.4,12-29.4,26.2-38.2,42.5C367.4,389.8,364.1,409.4,364.1,433.4L364.1,433.4z
			 M419.7,88.9c-15.3,0-26.2,5.5-33.8,16.4c-7.6,10.9-10.9,26.2-10.9,45.8c0,17.4,3.3,31.6,9.8,44.7c6.5,13.1,18.5,26.2,36,40.3
			c17.4-13.1,28.3-26.2,34.9-40.3c6.5-13.1,9.8-28.3,9.8-45.8C465.5,109.6,450.2,88.9,419.7,88.9L419.7,88.9z"/>
	</g>
</g>
</svg>
