<?xml version="1.0" encoding="utf-8"?>
<!-- Generator: Adobe Illustrator 18.0.0, SVG Export Plug-In . SVG Version: 6.00 Build 0)  -->
<!DOCTYPE svg PUBLIC "-//W3C//DTD SVG 1.1//EN" "http://www.w3.org/Graphics/SVG/1.1/DTD/svg11.dtd">
<svg version="1.1" id="Lager_1" xmlns:sketch="http://www.bohemiancoding.com/sketch/ns"
	 xmlns="http://www.w3.org/2000/svg" xmlns:xlink="http://www.w3.org/1999/xlink" x="0px" y="0px" viewBox="0 0 841.9 595.3"
	 enable-background="new 0 0 841.9 595.3" xml:space="preserve">
<title>field3</title>
<desc>Created with Sketch.</desc>
<g id="Page-1" sketch:type="MSPage">
	<g id="field3" transform="translate(0.700400, 0.500000)" sketch:type="MSLayerGroup">
		<path id="_x33_" sketch:type="MSShapeGroup" opacity="0.35" enable-background="new    " d="M563.9,140.4
			c0,35.9-8.7,65.3-26.1,90.3s-42.4,41.4-75.1,50.1v3.3c35.9,5.4,63.1,19.6,82.7,41.4c19.6,21.8,29.4,52.2,29.4,91.4
			c0,52.2-16.3,94.7-49,125.2c-32.6,31.6-77.3,46.8-133.9,46.8c-50.1,0-92.5-8.7-126.2-26.1V468c17.4,10.9,35.9,18.5,55.5,25
			c19.6,5.4,39.2,8.7,57.7,8.7c30.5,0,52.2-6.5,68.6-20.7c15.2-14.1,22.9-35.9,22.9-65.3c0-56.6-34.8-84.9-104.5-84.9h-32.6v-79.4
			h30.5c30.5,0,54.4-7.6,70.7-21.8c16.3-14.1,25-35.9,25-65.3c0-22.9-5.4-39.2-15.2-51.1c-9.8-12-25-17.4-44.6-17.4
			c-29.4,0-57.7,12-86,37l-47.9-69.6c38.1-38.1,87.1-57.7,144.7-57.7c47.9,0,86,12,112.1,35.9C549.7,65.3,563.9,99.1,563.9,140.4
			L563.9,140.4z"/>
	</g>
</g>
</svg>
