<?xml version="1.0" encoding="utf-8"?>
<!-- Generator: Adobe Illustrator 18.0.0, SVG Export Plug-In . SVG Version: 6.00 Build 0)  -->
<!DOCTYPE svg PUBLIC "-//W3C//DTD SVG 1.1//EN" "http://www.w3.org/Graphics/SVG/1.1/DTD/svg11.dtd">
<svg version="1.1" id="Lager_1" xmlns:sketch="http://www.bohemiancoding.com/sketch/ns"
	 xmlns="http://www.w3.org/2000/svg" xmlns:xlink="http://www.w3.org/1999/xlink" x="0px" y="0px" viewBox="721.3 276.1 27.5 52.9"
	 enable-background="new 721.3 276.1 27.5 52.9" xml:space="preserve">
<title>field5</title>
<desc>Created with Sketch.</desc>
<g id="Page-1" sketch:type="MSPage">
	<g id="field5" transform="translate(0.700400, 0.500000)" sketch:type="MSLayerGroup">
		<path id="_x35_" sketch:type="MSShapeGroup" opacity="0.35" enable-background="new    " d="M735.2,295.1c3.9,0,7.1,1.4,9.4,4.1
			c2.3,2.7,3.5,6.5,3.5,11.3c0,5.7-1.4,10.1-4.3,13.3c-2.9,3.2-6.9,4.7-12.1,4.7c-4.6,0-8.3-0.9-11.1-2.6v-9.1
			c1.2,0.9,2.8,1.7,4.7,2.4c1.9,0.7,3.7,1,5.3,1c5.1,0,7.7-3,7.7-8.9c0-5.5-2.5-8.3-7.5-8.3c-2,0-4.1,0.4-6.3,1.1l-3.1-2.3l1.6-26.2
			h22.3v8.7h-14l-0.7,11.3C732,295.3,733.5,295.1,735.2,295.1L735.2,295.1z"/>
	</g>
</g>
</svg>
