<?xml version="1.0" encoding="utf-8"?>
<!-- Generator: Adobe Illustrator 18.0.0, SVG Export Plug-In . SVG Version: 6.00 Build 0)  -->
<!DOCTYPE svg PUBLIC "-//W3C//DTD SVG 1.1//EN" "http://www.w3.org/Graphics/SVG/1.1/DTD/svg11.dtd">
<svg version="1.1" id="Lager_1" xmlns:sketch="http://www.bohemiancoding.com/sketch/ns"
	 xmlns="http://www.w3.org/2000/svg" xmlns:xlink="http://www.w3.org/1999/xlink" x="0px" y="0px" viewBox="0 0 841.9 595.3"
	 enable-background="new 0 0 841.9 595.3" xml:space="preserve">
<title>field9</title>
<desc>Created with Sketch.</desc>
<g id="Page-1" sketch:type="MSPage">
	<g id="field9" transform="translate(0.700400, 0.500000)" sketch:type="MSLayerGroup">
		<path id="_x39_" sketch:type="MSShapeGroup" opacity="0.35" enable-background="new    " d="M575.9,260.7
			c0,218.7-72.9,328.7-219.8,328.7c-23.9,0-44.6-2.2-60.9-6.5v-89.2c17.4,5.4,33.7,8.7,49,8.7c43.5,0,76.2-15.2,99-44.6
			c22.9-30.5,34.8-77.3,37-141.5h-3.3c-8.7,20.7-19.6,35.9-35.9,47.9c-15.2,12-33.7,17.4-55.5,17.4c-39.2,0-68.6-16.3-89.2-47.9
			s-31.6-75.1-31.6-130.6c0-60.9,14.1-108.8,41.4-144.7c28.3-35.9,65.3-53.3,112.1-53.3c51.1,0,89.2,21.8,116.4,65.3
			C561.7,115.9,575.9,179.1,575.9,260.7L575.9,260.7z M419.2,96.4c-15.2,0-28.3,8.7-37,25c-8.7,16.3-14.1,43.5-14.1,79.4
			c0,29.4,4.4,53.3,12,69.6c7.6,17.4,19.6,25,37,25c15.2,0,27.2-8.7,38.1-26.1c10.9-17.4,16.3-35.9,16.3-57.7
			c0-33.7-4.4-62-14.1-83.8C447.5,107.2,434.4,96.4,419.2,96.4L419.2,96.4z"/>
	</g>
</g>
</svg>
