<?xml version="1.0" encoding="utf-8"?>
<!-- Generator: Adobe Illustrator 18.0.0, SVG Export Plug-In . SVG Version: 6.00 Build 0)  -->
<!DOCTYPE svg PUBLIC "-//W3C//DTD SVG 1.1//EN" "http://www.w3.org/Graphics/SVG/1.1/DTD/svg11.dtd">
<svg version="1.1" id="Lager_1" xmlns:sketch="http://www.bohemiancoding.com/sketch/ns"
	 xmlns="http://www.w3.org/2000/svg" xmlns:xlink="http://www.w3.org/1999/xlink" x="0px" y="0px" viewBox="0 0 841.9 595.3"
	 enable-background="new 0 0 841.9 595.3" xml:space="preserve">
<title>field6</title>
<desc>Created with Sketch.</desc>
<g id="Page-1" sketch:type="MSPage">
	<g id="field6" transform="translate(0.700400, 0.500000)" sketch:type="MSLayerGroup">
		<path id="_x36_" sketch:type="MSShapeGroup" opacity="0.35" stroke="#979797" enable-background="new    " d="M266,340.2
			c0-116.7,18.5-200.6,54.5-254S412.1,5.5,485.1,5.5c12,0,22.9,1.1,34.9,2.2s20.7,3.3,26.2,4.4v87.2c-18.5-4.4-36-6.5-53.4-6.5
			c-29.4,0-53.4,6.5-73,19.6c-18.5,13.1-33.8,32.7-43.6,57.8c-9.8,26.2-16.4,62.1-18.5,109h4.4c8.7-21.8,21.8-38.2,37.1-49.1
			c16.4-10.9,33.8-16.4,54.5-16.4c38.2,0,67.6,15.3,89.4,46.9c20.7,30.5,31.6,75.2,31.6,133c0,60-14.2,107.9-41.4,142.8
			c-28.3,34.9-66.5,52.3-114.5,52.3c-51.2,0-89.4-20.7-115.6-63.2C279.1,485.2,266,422,266,340.2L266,340.2z M421.9,500.5
			c15.3,0,28.3-8.7,37.1-26.2c9.8-17.4,14.2-43.6,14.2-79.6c0-29.4-4.4-52.3-12-69.8c-8.7-17.4-20.7-26.2-38.2-26.2
			c-15.3,0-27.3,7.6-37.1,24c-9.8,16.4-14.2,36-14.2,60c0,38.2,4.4,66.5,13.1,87.2C393.5,490.7,406.6,500.5,421.9,500.5L421.9,500.5
			z"/>
	</g>
</g>
</svg>
