<?xml version="1.0" encoding="utf-8"?>
<!-- Generator: Adobe Illustrator 18.0.0, SVG Export Plug-In . SVG Version: 6.00 Build 0)  -->
<!DOCTYPE svg PUBLIC "-//W3C//DTD SVG 1.1//EN" "http://www.w3.org/Graphics/SVG/1.1/DTD/svg11.dtd">
<svg version="1.1" id="Lager_1" xmlns:sketch="http://www.bohemiancoding.com/sketch/ns"
	 xmlns="http://www.w3.org/2000/svg" xmlns:xlink="http://www.w3.org/1999/xlink" x="0px" y="0px" viewBox="0 0 841.9 595.3"
	 enable-background="new 0 0 841.9 595.3" xml:space="preserve">
<path fill="#FFFFFF" d="M594.2,344.7L252.1,2.8c-1.6-1.6-4.7-2.8-6.9-2.8H4C1.8,0,0,1.8,0,4v241.3c0,2.2,1.3,5.3,2.8,6.9l342,342
	c1.6,1.6,4.1,1.6,5.7,0l243.8-243.8C595.8,348.8,595.8,346.3,594.2,344.7z M119.9,170.9c-26.5,0-48-21.5-48-48s21.5-48,48-48
	s48,21.5,48,48C167.8,149.4,146.4,170.9,119.9,170.9z"/>
<title>lamp</title>
<desc>Created with Sketch.</desc>
</svg>
