<?xml version="1.0" encoding="utf-8"?>
<!-- Generator: Adobe Illustrator 18.0.0, SVG Export Plug-In . SVG Version: 6.00 Build 0)  -->
<!DOCTYPE svg PUBLIC "-//W3C//DTD SVG 1.1//EN" "http://www.w3.org/Graphics/SVG/1.1/DTD/svg11.dtd">
<svg version="1.1" id="Lager_1" xmlns:sketch="http://www.bohemiancoding.com/sketch/ns"
	 xmlns="http://www.w3.org/2000/svg" xmlns:xlink="http://www.w3.org/1999/xlink" x="0px" y="0px" viewBox="0.2 242.8 841.6 109.8"
	 enable-background="new 0.2 242.8 841.6 109.8" xml:space="preserve">
<title>field1 copy</title>
<desc>Created with Sketch.</desc>
<g id="Page-1" sketch:type="MSPage">
	<g id="field1-copy" transform="translate(0.500000, 0.500000)" sketch:type="MSLayerGroup">
		<rect id="Rectangle-1" x="-0.3" y="242.3" sketch:type="MSShapeGroup" fill="#A281D1" width="841.6" height="109.8">
		</rect>
		<g id="person" transform="translate(253.000000, 78.500000)" sketch:type="MSShapeGroup">
			<path id="Shape" fill-opacity="0.3452" d="M-130.9,218c-2.6,5.6-8.4,10.2-14,10.2c-6.8,0-11.8-4.6-14.4-10.1
				c-15.4,7.3-13.4,25.9-13.4,25.9c0,2.5,2.2,2.9,4.7,2.9h23.1h23.1c2.5,0,4.7-0.4,4.7-2.9C-117.1,243.9-115.6,225.3-130.9,218
				L-130.9,218z"/>
			<path id="Shape_1_" fill-opacity="0.3452" d="M-131.3,205.1c0-8.1-6.3-14.8-14.1-14.8s-14.1,6.6-14.1,14.8s6.5,18,14.3,18
				S-131.3,213.3-131.3,205.1z"/>
		</g>
		<path id="_x31_" sketch:type="MSShapeGroup" opacity="0.3507" enable-background="new    " d="M752.5,322.6h-9.4v-30
			c0-3.2,0.2-7,0.5-11.2c-0.2,0.2-0.8,1-1.8,2.2c-1.1,1.2-3,3.3-6.1,6.5l-5.3-5.8l13.6-12.6h8.5V322.6L752.5,322.6z"/>
	</g>
</g>
</svg>
