<?xml version="1.0" encoding="utf-8"?>
<!-- Generator: Adobe Illustrator 18.0.0, SVG Export Plug-In . SVG Version: 6.00 Build 0)  -->
<!DOCTYPE svg PUBLIC "-//W3C//DTD SVG 1.1//EN" "http://www.w3.org/Graphics/SVG/1.1/DTD/svg11.dtd">
<svg version="1.1" id="Lager_1" xmlns:sketch="http://www.bohemiancoding.com/sketch/ns"
	 xmlns="http://www.w3.org/2000/svg" xmlns:xlink="http://www.w3.org/1999/xlink" x="0px" y="0px" viewBox="0.2 242.8 841.6 109.8"
	 enable-background="new 0.2 242.8 841.6 109.8" xml:space="preserve">
<g id="Page-1_1_" sketch:type="MSPage">
	<g id="field6-copy" transform="translate(0.500000, 0.500000)" sketch:type="MSLayerGroup">
		<rect id="Rectangle-1" x="-0.3" y="242.3" sketch:type="MSShapeGroup" fill="#85ADE5" width="841.6" height="109.8">
		</rect>
	</g>
</g>
<title>field5 copy</title>
<desc>Created with Sketch.</desc>
<g id="Page-1" sketch:type="MSPage">
	<g id="field5-copy" transform="translate(0.500000, 0.500000)" sketch:type="MSLayerGroup">
		<path id="Shape" sketch:type="MSShapeGroup" fill-opacity="0.3452" d="M127.5,258.1H88.6c-2.7,0-4.9,2.2-4.9,4.9v68.2
			c0,2.7,2.2,4.9,4.9,4.9h38.9c2.7,0,4.9-2.2,4.9-4.9V263C132.4,260.2,130.2,258.1,127.5,258.1L127.5,258.1z M105.6,262.9h4.9
			c1.3,0,2.4,1.1,2.4,2.4c0,1.4-1.1,2.4-2.4,2.4h-4.9c-1.3,0-2.4-1.1-2.4-2.4C103.2,264,104.2,262.9,105.6,262.9L105.6,262.9z
			 M110.4,331.1h-4.9c-1.3,0-2.4-1.1-2.4-2.4c0-1.4,1.1-2.4,2.4-2.4h4.9c1.3,0,2.4,1.1,2.4,2.4C112.9,330.1,111.8,331.1,110.4,331.1
			L110.4,331.1z M127.5,321.4H88.6v-48.7h38.9V321.4L127.5,321.4z"/>
	</g>
</g>
<g opacity="0.35" enable-background="new    ">
	<path d="M725.3,309.2l9.2-1.2c0.3,2.3,1.1,4.2,2.4,5.4c1.3,1.3,2.8,1.8,4.7,1.8s3.6-0.8,5-2.2c1.4-1.5,2-3.5,2-6
		c0-2.4-0.7-4.3-1.9-5.7c-1.3-1.5-2.9-2.1-4.8-2.1c-1.3,0-2.7,0.2-4.4,0.7l1.1-7.8c2.6,0.1,4.6-0.5,5.9-1.7c1.4-1.2,2-2.8,2-4.8
		c0-1.7-0.5-3-1.5-4c-1-1-2.3-1.5-4-1.5s-3,0.6-4.2,1.7c-1.2,1.2-1.8,2.8-2.1,5l-8.8-1.5c0.6-3,1.6-5.4,2.8-7.3
		c1.3-1.8,3-3.2,5.2-4.3c2.2-1.1,4.7-1.6,7.5-1.6c4.7,0,8.5,1.5,11.4,4.5c2.3,2.4,3.5,5.2,3.5,8.4c0,4.4-2.4,7.9-7.2,10.5
		c2.8,0.6,5.2,1.9,6.9,4.1c1.7,2.2,2.6,4.8,2.6,7.8c0,4.4-1.6,8.2-4.8,11.2c-3.2,3.1-7.2,4.7-12,4.7c-4.6,0-8.3-1.3-11.3-3.9
		C727.5,316.7,725.8,313.3,725.3,309.2z"/>
</g>
</svg>
