<?xml version="1.0" encoding="utf-8"?>
<!-- Generator: Adobe Illustrator 18.0.0, SVG Export Plug-In . SVG Version: 6.00 Build 0)  -->
<!DOCTYPE svg PUBLIC "-//W3C//DTD SVG 1.1//EN" "http://www.w3.org/Graphics/SVG/1.1/DTD/svg11.dtd">
<svg version="1.1" id="Lager_1" xmlns:sketch="http://www.bohemiancoding.com/sketch/ns"
	 xmlns="http://www.w3.org/2000/svg" xmlns:xlink="http://www.w3.org/1999/xlink" x="0px" y="0px" viewBox="0.2 242.8 841.6 109.8"
	 enable-background="new 0.2 242.8 841.6 109.8" xml:space="preserve">
<title>field10 copy</title>
<desc>Created with Sketch.</desc>
<g id="Page-1" sketch:type="MSPage">
	<g id="field10-copy" transform="translate(0.500000, 0.500000)" sketch:type="MSLayerGroup">
		<rect id="Rectangle-1" x="-0.3" y="242.3" sketch:type="MSShapeGroup" fill="#8B99E0" width="841.6" height="109.8">
		</rect>
	</g>
</g>
<path id="Shape_1_" sketch:type="MSShapeGroup" fill-opacity="0.3452" d="M108.7,271.8c3-0.1,5.4-2.5,5.5-5.5c0.1-3.3-2.6-6-5.9-5.9
	c-3,0.1-5.4,2.5-5.5,5.5C102.7,269.3,105.4,271.9,108.7,271.8L108.7,271.8z M150.2,306.2h-1.6l-11.4-22c1.6-0.2,3.2-0.8,4.7-1.5
	c2.2-1,2.6-3.8,1-5.5l-0.1-0.1c-1-1-2.5-1.4-3.8-0.7c-1.3,0.5-3,1.2-4.8,1.2c-5,0-7.2-5.7-25.7-5.7s-20.6,5.7-25.7,5.7
	c-1.7,0-3.5-0.5-4.8-1.2c-1.4-0.5-2.8-0.3-3.8,0.7l-0.1,0.1c-1.6,1.6-1.2,4.5,1,5.5c1.5,0.7,3,1.3,4.7,1.5l-11.4,22H67
	c-0.7,0-1.3,0.6-1.2,1.4c1,5.7,8.2,10.1,17,10.1s16.1-4.4,17-10.1c0.1-0.7-0.5-1.4-1.2-1.4H97l-11.4-21.9c7.4-0.6,11.4-4.4,17-4.4
	v43.4c-3.1,0-5.7,2.6-5.7,5.7h-6.3c-2.5,0-5.1,2.6-5.1,5.7h45.8c0-3.1-2.6-5.7-6.3-5.7h-5.1c0-3.1-2.6-5.7-5.7-5.7v-43.4
	c5.7,0,9.6,3.8,17,4.4L120,306.2h-1.6c-0.7,0-1.3,0.6-1.2,1.4c1,5.7,8.2,10.1,17,10.1s16.1-4.4,17-10.1
	C151.5,306.8,150.9,306.2,150.2,306.2L150.2,306.2z M91.4,306.2H74.2l8.6-16.1L91.4,306.2L91.4,306.2z M125.7,306.2l8.6-16.1
	l8.6,16.1H125.7L125.7,306.2z"/>
<g opacity="0.35" enable-background="new    ">
	<path d="M726.1,310.5l9.3-1c0.2,1.9,0.9,3.3,1.8,4.2c0.9,0.9,2.2,1.3,3.8,1.3c2,0,3.7-0.9,5-2.7c1.4-1.8,2.3-5.6,2.7-11.3
		c-2.4,2.7-5.4,4.2-9,4.2c-3.9,0-7.3-1.5-10.1-4.5c-2.8-3-4.3-7-4.3-11.8c0-5,1.5-9.2,4.5-12.2c3-3.1,6.8-4.6,11.5-4.6
		c5,0,9.2,2,12.5,5.9c3.2,3.9,4.8,10.3,4.8,19.3c0,9.1-1.7,15.7-5.1,19.8s-7.8,6.1-13.3,6.1c-3.9,0-7.1-1-9.5-3.1
		C728.3,317.7,726.7,314.6,726.1,310.5z M747.8,289.6c0-3.1-0.7-5.5-2.1-7.2c-1.4-1.7-3-2.6-4.9-2.6c-1.8,0-3.2,0.7-4.4,2.1
		c-1.1,1.4-1.8,3.7-1.8,6.8c0,3.2,0.7,5.6,1.9,7.1c1.2,1.5,2.8,2.3,4.7,2.3c1.8,0,3.4-0.8,4.6-2.2
		C747.1,294.5,747.8,292.4,747.8,289.6z"/>
</g>
</svg>
