<?xml version="1.0" encoding="utf-8"?>
<!-- Generator: Adobe Illustrator 18.0.0, SVG Export Plug-In . SVG Version: 6.00 Build 0)  -->
<!DOCTYPE svg PUBLIC "-//W3C//DTD SVG 1.1//EN" "http://www.w3.org/Graphics/SVG/1.1/DTD/svg11.dtd">
<svg version="1.1" id="Lager_1" xmlns:sketch="http://www.bohemiancoding.com/sketch/ns"
	 xmlns="http://www.w3.org/2000/svg" xmlns:xlink="http://www.w3.org/1999/xlink" x="0px" y="0px" viewBox="0.2 242.8 841.6 109.8"
	 enable-background="new 0.2 242.8 841.6 109.8" xml:space="preserve">
<g id="Page-1_1_" sketch:type="MSPage">
	<g id="field6-copy" transform="translate(0.500000, 0.500000)" sketch:type="MSLayerGroup">
		<rect id="Rectangle-1_1_" x="-0.3" y="242.3" sketch:type="MSShapeGroup" fill="#AED581" width="841.6" height="109.8">
		</rect>
	</g>
</g>
<title>field10 copy</title>
<desc>Created with Sketch.</desc>
<g id="Page-1" sketch:type="MSPage">
	<g id="field10-copy" transform="translate(0.500000, 0.500000)" sketch:type="MSLayerGroup">
		<path id="Shape" sketch:type="MSShapeGroup" fill-opacity="0.3452" d="M91,329.2h8.8v-31.4l-8.8,8.8V329.2L91,329.2z M78.8,318.8
			v10.4h8.8V310l-6.1,6.1L78.8,318.8L78.8,318.8z M103.1,329.2h8.8v-24.3l-8.8-8.8V329.2L103.1,329.2z M115.3,306v23.3h8.8v-32.1
			l-6.9,6.9L115.3,306L115.3,306z M127.5,329.2h8.8V285l-8.8,8.8V329.2L127.5,329.2z M124,266.9l5.9,5.9l0,0l-15.7,15.7l-11.8-11.8
			l-30.2,30.1l6.3,6.3l23.9-23.9l11.8,11.8l22-22l5.9,5.9L144,265L124,266.9L124,266.9z"/>
	</g>
</g>
<g enable-background="new    ">
	<path fill="#738A57" d="M733.9,295.3c-2.5-1-4.3-2.5-5.4-4.3c-1.1-1.8-1.7-3.8-1.7-6c0-3.7,1.3-6.8,3.9-9.2
		c2.6-2.4,6.3-3.7,11.1-3.7s8.4,1.2,11.1,3.7c2.6,2.4,3.9,5.5,3.9,9.2c0,2.3-0.6,4.4-1.8,6.2c-1.2,1.8-2.9,3.2-5.1,4.1
		c2.8,1.1,4.9,2.7,6.3,4.9c1.4,2.1,2.2,4.6,2.2,7.4c0,4.6-1.5,8.4-4.4,11.3c-2.9,2.9-6.9,4.3-11.8,4.3c-4.6,0-8.3-1.2-11.4-3.6
		c-3.6-2.8-5.4-6.7-5.4-11.6c0-2.7,0.7-5.2,2-7.5C728.9,298.3,731,296.5,733.9,295.3z M735,307.1c0,2.6,0.7,4.7,2,6.2
		c1.4,1.5,3,2.2,5.1,2.2c2,0,3.6-0.7,4.9-2.1s1.9-3.5,1.9-6.2c0-2.3-0.7-4.2-2-5.6c-1.3-1.4-3-2.1-5-2.1c-2.3,0-4.1,0.8-5.2,2.4
		C735.5,303.4,735,305.2,735,307.1z M735.8,285.6c0,1.9,0.5,3.4,1.6,4.5c1.1,1.1,2.5,1.6,4.3,1.6s3.3-0.5,4.4-1.6
		c1.1-1.1,1.6-2.6,1.6-4.5c0-1.8-0.5-3.2-1.6-4.3c-1.1-1.1-2.5-1.6-4.3-1.6s-3.3,0.5-4.4,1.6C736.4,282.4,735.8,283.8,735.8,285.6z"
		/>
</g>
<g enable-background="new    ">
	<path fill="none" d="M733,307.1c0,2.6,0.7,4.7,2,6.2c1.4,1.5,3,2.2,5.1,2.2c2,0,3.6-0.7,4.9-2.1c1.3-1.4,1.9-3.5,1.9-6.2
		c0-2.3-0.7-4.2-2-5.6c-1.3-1.4-3-2.1-5-2.1c-2.3,0-4.1,0.8-5.2,2.4C733.5,303.4,733,305.2,733,307.1z M733.8,285.6
		c0,1.9,0.5,3.4,1.6,4.5c1.1,1.1,2.5,1.6,4.3,1.6s3.3-0.5,4.4-1.6c1.1-1.1,1.6-2.6,1.6-4.5c0-1.8-0.5-3.2-1.6-4.3
		c-1.1-1.1-2.5-1.6-4.3-1.6s-3.3,0.5-4.4,1.6C734.4,282.4,733.8,283.8,733.8,285.6z"/>
</g>
</svg>
