<?xml version="1.0" encoding="utf-8"?>
<!-- Generator: Adobe Illustrator 18.0.0, SVG Export Plug-In . SVG Version: 6.00 Build 0)  -->
<!DOCTYPE svg PUBLIC "-//W3C//DTD SVG 1.1//EN" "http://www.w3.org/Graphics/SVG/1.1/DTD/svg11.dtd">
<svg version="1.1" id="Lager_1" xmlns:sketch="http://www.bohemiancoding.com/sketch/ns"
	 xmlns="http://www.w3.org/2000/svg" xmlns:xlink="http://www.w3.org/1999/xlink" x="0px" y="0px" viewBox="0.2 242.8 841.6 109.8"
	 enable-background="new 0.2 242.8 841.6 109.8" xml:space="preserve">
<title>field8 copy</title>
<desc>Created with Sketch.</desc>
<g id="Page-1" sketch:type="MSPage">
	<g id="field8-copy" transform="translate(0.500000, 0.500000)" sketch:type="MSLayerGroup">
		<rect id="Rectangle-1" x="-0.3" y="242.3" sketch:type="MSShapeGroup" fill="#6BB5B4" width="841.6" height="109.8">
		</rect>
		<path id="Shape" sketch:type="MSShapeGroup" fill-opacity="0.3452" d="M108.3,261.2c-19.8,0-35.9,16.1-35.9,35.9
			c0,19.8,16.1,35.9,35.9,35.9c2.4,0,4.8-0.3,7.1-0.7c-0.9-0.5-1-3.8-0.1-5.6c1-2.1,4.2-7.4,1-9.2c-3.2-1.8-2.3-2.6-4.2-4.7
			c-1.9-2.1-1.1-2.4-1.2-2.9c-0.4-1.8,1.9-4.5,2-4.9c0.1-0.4,0.1-1.3,0.1-1.6c0-0.3-1.4-1.1-1.8-1.2c-0.4,0-0.6,0.6-1,0.6
			s-2.6-1.3-3.1-1.6c-0.5-0.4-0.7-1.2-1.3-1.8c-0.7-0.7-0.7-0.2-1.7-0.6c-0.9-0.4-4.1-1.6-6.6-2.5c-2.4-0.9-2.6-2.4-2.6-3.3
			s-1.5-2.4-2.2-3.4c-0.7-1-0.8-2.4-1-2.1c-0.3,0.4,1.2,4,1,4.1c-0.3,0.1-0.8-1-1.5-1.9s0.8-0.4-1.5-4.9s0.7-6.7,0.8-8.9
			c0.2-2.3,1.9,0.8,0.9-0.7c-1-1.5,0.1-4.5-0.7-5.6c-0.7-1.1-4.7,1.2-4.7,1.2c0.1-1,3.5-2.9,5.9-4.7c2.4-1.7,4-0.4,5.9,0.3
			c2,0.7,2.1,0.4,1.4-0.2c-0.7-0.7,0.3-0.9,1.8-0.7c1.6,0.3,2,2.1,4.3,1.9c2.3-0.2,0.3,0.5,0.6,1c0.3,0.5-0.4,0.6-1.9,1.6
			c-1.5,1,0,1,2.8,3c2.7,2,1.9-1.3,1.6-2.8s2-0.4,2-0.4c1.7,1.1,1.4,0.1,2.6,0.5c1.2,0.4,4.5,3.2,4.5,3.2c-4.1,2.3-1.6,2.5-0.8,3
			c0.8,0.6-1.4,1.6-1.4,1.6c-0.8-0.8-1,0-1.6,0.4c-0.6,0.4,0,1.1,0,1.1c-2.9,0.5-2.3,3.5-2.3,4.2s-1.9,1.9-2.4,2.9s1.2,3.3,0.4,3.5
			s-1.8-3.5-6.8-2.1c-1.5,0.4-4.8,2.1-3,5.6c1.7,3.5,4.7-0.9,5.6-0.5c0.9,0.5-0.3,2.7-0.1,2.7c0.2,0,2.8,0.1,2.9,3.1
			c0.1,3,3.9,2.7,4.7,2.8c0.8,0.1,3.5-2.3,3.9-2.3c0.4-0.1,1.9-1.4,5.3,0.6s5.1,1.6,6.2,2.4c1.1,0.8,0.4,2.4,1.4,2.9
			c1,0.5,5.5-0.2,6.5,1.6c1,1.8-4.5,10.8-6.2,11.8c-1.8,0.9-2.5,3.2-4.3,4.7c-1.7,1.4-4.2,3.2-6.6,4.5c-2.1,1.2-2.4,3.4-3.3,4.1
			c16.1-3.6,28.1-17.9,28.1-35.1C144.2,277.1,128.1,261.2,108.3,261.2L108.3,261.2z M116.7,294.8c-0.5,0.2-1.5,1-4-0.4
			c-2.5-1.5-4.2-1.2-4.4-1.4c0,0-0.2-0.6,0.8-0.7c2.3-0.2,5.1,2.1,5.6,2.1c0.7,0,0.9-0.7,2.1-0.3
			C118.1,294.5,117.2,294.6,116.7,294.8L116.7,294.8z M105,264.7c-0.3-0.2,0.2-0.4,0.5-0.8c0.2-0.2,0-0.6,0.3-0.8
			c0.6-0.6,3.1-1.2,2.6,0.2C107.7,264.8,105.4,265,105,264.7L105,264.7z M111.2,269.2c-0.8,0-2.9-0.3-2.5-0.7c1.5-1.5-0.6-1.9-1.8-2
			c-1.2-0.1-1.8-0.8-1.1-0.8s3.1,0,3.6,0.4c0.5,0.4,2.7,1.2,2.8,1.9C112.2,268.7,112.2,269.2,111.2,269.2L111.2,269.2z M118.8,269.1
			c-0.7,0.6-4.2-2-4.9-2.6c-2.9-2.5-4.5-1.7-5.2-2.1c-0.7-0.4-0.4-0.9,0.6-1.8c0.9-0.8,3.6,0.3,5.2,0.5c1.5,0.2,3.3,1.4,3.4,2.8
			C117.9,267.2,119.5,268.5,118.8,269.1L118.8,269.1z"/>
	</g>
</g>
<path id="_x35_" sketch:type="MSShapeGroup" opacity="0.35" enable-background="new    " d="M742.7,291c3.8,0,6.8,1.4,9.1,4
	c2.2,2.6,3.4,6.3,3.4,10.9c0,5.5-1.4,9.7-4.1,12.8c-2.8,3.1-6.7,4.5-11.7,4.5c-4.4,0-8-0.9-10.7-2.5v-8.8c1.2,0.9,2.7,1.6,4.5,2.3
	s3.6,1,5.1,1c4.9,0,7.4-2.9,7.4-8.6c0-5.3-2.4-8-7.2-8c-1.9,0-4,0.4-6.1,1.1l-3-2.2l1.5-25.3h21.5v8.4h-13.5l-0.7,10.9
	C739.5,291.2,740.9,291,742.7,291L742.7,291z"/>
</svg>
