<?xml version="1.0" encoding="utf-8"?>
<!-- Generator: Adobe Illustrator 18.0.0, SVG Export Plug-In . SVG Version: 6.00 Build 0)  -->
<!DOCTYPE svg PUBLIC "-//W3C//DTD SVG 1.1//EN" "http://www.w3.org/Graphics/SVG/1.1/DTD/svg11.dtd">
<svg version="1.1" id="Lager_1" xmlns:sketch="http://www.bohemiancoding.com/sketch/ns"
	 xmlns="http://www.w3.org/2000/svg" xmlns:xlink="http://www.w3.org/1999/xlink" x="0px" y="0px" viewBox="0.2 485.5 841.9 109.8"
	 enable-background="new 0.2 485.5 841.9 109.8" xml:space="preserve">
<rect id="Rectangle-1" x="0.2" y="485.5" sketch:type="MSShapeGroup" fill="#A281D1" width="841.9" height="109.8">
</rect>
<title>field10 copy</title>
<desc>Created with Sketch.</desc>
<g id="Page-1" sketch:type="MSPage">
	<g id="field10-copy" transform="translate(0.500000, 0.500000)" sketch:type="MSLayerGroup">
		<line id="Rectangle-1_5_" sketch:type="MSShapeGroup" fill="#8B99E0" x1="-0.3" y1="594.9" x2="-0.3" y2="485">
		</line>
		<line id="Rectangle-1_4_" sketch:type="MSShapeGroup" fill="#8B99E0" x1="841.6" y1="485" x2="841.6" y2="594.9">
		</line>
	</g>
</g>
<g>
	<g>
		<g>
			<g>
				<g opacity="0.3452">
					<path d="M110.1,548.6c2.4,0,5.4,0,7.3,0c2,0,3.2-0.5,4.4-1.4c3.3-2.4,5.7-5.4,7.3-9.1c2.5-5.9,3.4-11.9,2.5-18.2
						c-0.7-4.8-3-8.9-7.2-11.4c-8.3-5.1-17.3-5.6-26.4-2.4c-3.5,1.2-6.6,3.2-8.9,6.1c-3,3.9-4.2,8.4-4.2,13.3c0,1.8,0.6,2.4,2.5,2.4
						c4.4,0,8.9,0.1,13.3,0.1c1.6,0,2-0.3,2.6-1.8c0.5-1.4,1.5-2.3,3.1-2.5c1.2-0.2,2.4-0.4,3.7-0.3c1.9,0.1,3.3,1.2,3.5,2.9
						c0.5,3.6-0.6,5.1-3.4,6c-0.3,0.1-0.5,0.1-0.7,0.2c-2.5,0.9-5,2-6.9,4.2c-2.3,2.6-3.1,5.7-3.4,8.9c-0.3,2,0.7,3.2,2.7,3.2
						C104.7,548.6,107.4,548.6,110.1,548.6z M109.6,576.6c2.3,0,4.7,0,7,0c1.7,0,2.8-1,2.8-2.7c0-4.7,0-9.5,0-14.2
						c0-1.7-1-2.7-2.8-2.7c-4.7,0-9.4,0-14.1,0c-1.7,0-2.7,1-2.8,2.7c0,4.7,0,9.5,0,14.2c0,1.7,1,2.7,2.8,2.7
						C104.9,576.6,107.2,576.6,109.6,576.6z"/>
				</g>
			</g>
		</g>
	</g>
</g>
<line id="Rectangle-1_3_" sketch:type="MSShapeGroup" fill="#A281D1" x1="0.2" y1="595.4" x2="0.2" y2="485.5">
</line>
<line id="Rectangle-1_2_" sketch:type="MSShapeGroup" fill="#A281D1" x1="842.1" y1="485.5" x2="842.1" y2="595.4">
</line>
</svg>
