<?xml version="1.0" encoding="utf-8"?>
<!-- Generator: Adobe Illustrator 18.0.0, SVG Export Plug-In . SVG Version: 6.00 Build 0)  -->
<!DOCTYPE svg PUBLIC "-//W3C//DTD SVG 1.1//EN" "http://www.w3.org/Graphics/SVG/1.1/DTD/svg11.dtd">
<svg version="1.1" id="Lager_1" xmlns:sketch="http://www.bohemiancoding.com/sketch/ns"
	 xmlns="http://www.w3.org/2000/svg" xmlns:xlink="http://www.w3.org/1999/xlink" x="0px" y="0px" viewBox="0.2 242.8 841.6 109.8"
	 enable-background="new 0.2 242.8 841.6 109.8" xml:space="preserve">
<title>field6 copy</title>
<desc>Created with Sketch.</desc>
<g id="Page-1" sketch:type="MSPage">
	<g id="field6-copy" transform="translate(0.500000, 0.500000)" sketch:type="MSLayerGroup">
		<rect id="Rectangle-1" x="-0.3" y="242.3" sketch:type="MSShapeGroup" fill="#AED581" width="841.6" height="109.8">
		</rect>
		<path id="Shape" sketch:type="MSShapeGroup" fill-opacity="0.3452" d="M87.5,263.8c-5.7,0-10.3,4.6-10.3,10.3
			c0,3.8,2.1,7.1,5.2,8.8v33.6c-3.1,1.8-5.2,5.1-5.2,8.8c0,5.7,4.6,10.3,10.3,10.3s10.3-4.6,10.3-10.3c0-3.8-2.1-7.1-5.2-8.8v-33.6
			c3.1-1.8,5.2-5.1,5.2-8.8C97.8,268.4,93.2,263.8,87.5,263.8L87.5,263.8z M87.5,330.5c-2.8,0-5.2-2.3-5.2-5.1s2.3-5.1,5.2-5.1
			c2.8,0,5.2,2.3,5.2,5.1S90.4,330.5,87.5,330.5L87.5,330.5z M87.5,279.2c-2.8,0-5.2-2.3-5.2-5.1c0-2.8,2.3-5.1,5.2-5.1
			c2.8,0,5.2,2.3,5.2,5.1S90.4,279.2,87.5,279.2L87.5,279.2z M133.8,316.5v-32.2c0-15.4-15.4-15.4-15.4-15.4h-5.2v-10.3L97.8,274
			l15.4,15.4v-10.3h5.2c4.5,0,5.2,5.1,5.2,5.1v32.2c-3.1,1.8-5.2,5.1-5.2,8.8c0,5.7,4.6,10.3,10.3,10.3c5.7,0,10.3-4.6,10.3-10.3
			C139,321.6,136.9,318.3,133.8,316.5L133.8,316.5z M128.7,330.5c-2.8,0-5.2-2.3-5.2-5.1s2.3-5.1,5.2-5.1c2.8,0,5.2,2.3,5.2,5.1
			C133.8,328.2,131.5,330.5,128.7,330.5L128.7,330.5z"/>
	</g>
</g>
<g opacity="0.35" enable-background="new    ">
	<path stroke="#979797" d="M744.5,323.2V313h-20.8v-8.5l22-32.3h8.2v32.2h6.3v8.6h-6.3v10.2L744.5,323.2L744.5,323.2z M744.5,304.4
		V287l-11.7,17.4H744.5z"/>
</g>
</svg>
