<?xml version="1.0" encoding="utf-8"?>
<!-- Generator: Adobe Illustrator 18.0.0, SVG Export Plug-In . SVG Version: 6.00 Build 0)  -->
<!DOCTYPE svg PUBLIC "-//W3C//DTD SVG 1.1//EN" "http://www.w3.org/Graphics/SVG/1.1/DTD/svg11.dtd">
<svg version="1.1" id="Lager_1" xmlns:sketch="http://www.bohemiancoding.com/sketch/ns"
	 xmlns="http://www.w3.org/2000/svg" xmlns:xlink="http://www.w3.org/1999/xlink" x="0px" y="0px" viewBox="0.2 242.8 841.6 109.8"
	 enable-background="new 0.2 242.8 841.6 109.8" xml:space="preserve">
<title>field9 copy</title>
<desc>Created with Sketch.</desc>
<g id="Page-1" sketch:type="MSPage">
	<g id="field9-copy" transform="translate(0.500000, 0.500000)" sketch:type="MSLayerGroup">
		<rect id="Rectangle-1" x="-0.3" y="242.3" sketch:type="MSShapeGroup" fill="#7DA1D6" width="841.6" height="109.8">
		</rect>
		<path id="Shape" sketch:type="MSShapeGroup" fill-opacity="0.3452" d="M141.1,320.7l-29.4-51.4c-0.8-1.3-2.2-2.2-3.7-2.2
			c-1.5,0-3,0.8-3.7,2.2L75,320.7c-0.8,1.3-0.8,3,0,4.3c0.8,1.3,2.2,2.1,3.7,2.1h58.7c1.5,0,2.9-0.8,3.7-2.1
			C141.9,323.6,141.9,322,141.1,320.7L141.1,320.7z M112.4,318.5h-8.6V310h8.6V318.5L112.4,318.5z M112.4,305.7h-8.6v-17.1h8.6
			V305.7L112.4,305.7z"/>
	</g>
</g>
<g enable-background="new    ">
	<path fill="none" d="M723.8,281.4v-9.2h33.9v7.2c-2.9,2.8-5.7,6.7-8.6,11.9c-2.9,5.1-5.1,10.6-6.6,16.4c-1.5,5.8-2.3,11-2.3,15.5
		h-9.5c0.2-7.2,1.7-14.5,4.4-21.9c2.8-7.5,6.5-14.1,11.2-20L723.8,281.4L723.8,281.4z"/>
</g>
<g enable-background="new    ">
	<path fill="#536A8B" d="M725,281.4v-9.2h33.9v7.2c-2.9,2.8-5.7,6.7-8.6,11.9c-2.9,5.1-5.1,10.6-6.6,16.4c-1.5,5.8-2.3,11-2.3,15.5
		h-9.5c0.2-7.2,1.7-14.5,4.4-21.9c2.8-7.5,6.5-14.1,11.2-20L725,281.4L725,281.4z"/>
</g>
</svg>
