<?xml version="1.0" encoding="utf-8"?>
<!-- Generator: Adobe Illustrator 18.0.0, SVG Export Plug-In . SVG Version: 6.00 Build 0)  -->
<!DOCTYPE svg PUBLIC "-//W3C//DTD SVG 1.1//EN" "http://www.w3.org/Graphics/SVG/1.1/DTD/svg11.dtd">
<svg version="1.1" id="Lager_1" xmlns:sketch="http://www.bohemiancoding.com/sketch/ns"
	 xmlns="http://www.w3.org/2000/svg" xmlns:xlink="http://www.w3.org/1999/xlink" x="0px" y="0px" viewBox="0.2 242.8 841.6 109.8"
	 enable-background="new 0.2 242.8 841.6 109.8" xml:space="preserve">
<title>field11 copy</title>
<desc>Created with Sketch.</desc>
<g id="Page-1" sketch:type="MSPage">
	<g id="field11-copy" transform="translate(0.500000, 0.500000)" sketch:type="MSLayerGroup">
		<rect id="Rectangle-1" x="-0.3" y="242.3" sketch:type="MSShapeGroup" fill="#29BCA4" width="841.6" height="109.8">
		</rect>
		<g id="Group" transform="translate(244.000000, 45.000000)" sketch:type="MSShapeGroup">
			<path id="Shape" fill-opacity="0.3452" d="M-114.2,252.4c-0.3-4.2-2.4-8-5.4-10.9c-4.9-4.7-6.9-9.5-6.9-18.4
				c-3,2.9-4.1,5.6-5.1,8.3c0.1,4.1,0.5,8.2,1.5,12.2c0.6,2.6,1.4,5.2,2.5,7.6c1.1,2.5,2.8,5,3.3,7.7c1,5-1.6,8.8-4.8,12.5
				c0.9-0.3,1.7-0.5,2.4-0.9C-121.4,267.8-113.5,260.3-114.2,252.4L-114.2,252.4z"/>
			<path id="Shape_1_" fill-opacity="0.3452" d="M-131.5,271.9c1.3-1.5,2.6-2.9,3.8-4.5c3.3-4.8,1.8-8.7-0.4-13.6
				c-3.5-7.8-4.8-15.7-5.1-23.9c-1.5-6.4-4.5-12.3-8.5-17.6c0.3,1.2,0.5,4,0.6,5.2c0.7,8.1-1.1,13.8-7.3,20.9
				c2.6,7.2,7.1,13.1,9.1,20.5c1.2,4.4,1.4,8.7,1,13.1C-136,272.3-133.6,272.2-131.5,271.9L-131.5,271.9z"/>
			<path id="Shape_2_" fill-opacity="0.3452" d="M-141.6,257.2c-2.2-6.2-9.8-20.2-12.1-26.3c0,4.8-0.6,8.9-1.1,10.8
				c-1.3,4.7-2.5,9.5-2.5,13.5c0,6.8,7.6,12.9,12.3,15.2c1.4,0.7,3.2,1.2,5.2,1.5C-139.5,267-139.9,262.1-141.6,257.2L-141.6,257.2z
				"/>
			<path id="Shape_3_" fill-opacity="0.3452" d="M-107,291.9l-0.8-0.2l-58.8-14.3l-0.8-0.2l0.2-0.7l2.2-6.6l0.2-0.7l0.8,0.2
				l58.8,14.3l0.8,0.2l-0.2,0.7l-2.2,6.6L-107,291.9z"/>
			<path id="Shape_4_" fill-opacity="0.3452" d="M-107.5,270.1l-25.3,6.2l14.7,3.6l12.8-3.1L-107.5,270.1z"/>
			<path id="Shape_5_" fill-opacity="0.3452" d="M-166.3,284.4l2.2,6.6l25.3-6.2l-14.7-3.6L-166.3,284.4z"/>
		</g>
	</g>
</g>
<g opacity="0.35" enable-background="new    ">
	<path d="M757.8,284.6l-9.2,1c-0.2-1.9-0.8-3.3-1.8-4.2c-1-0.9-2.2-1.4-3.7-1.4c-2,0-3.8,0.9-5.2,2.7c-1.4,1.8-2.3,5.6-2.7,11.3
		c2.4-2.8,5.4-4.2,8.9-4.2c4,0,7.5,1.5,10.2,4.6c2.9,3.1,4.3,7,4.3,11.8c0,5.1-1.5,9.2-4.5,12.3c-3,3.1-6.9,4.7-11.5,4.7
		c-5.1,0-9.2-2-12.4-5.9c-3.3-3.9-4.9-10.3-4.9-19.3c0-9.2,1.7-15.7,5.1-19.8c3.4-4.1,7.8-6.1,13.2-6.1c3.8,0,7,1.1,9.4,3.2
		C755.5,277.4,757.1,280.5,757.8,284.6z M736.1,305.4c0,3.1,0.7,5.5,2.2,7.2c1.4,1.7,3.1,2.6,4.9,2.6c1.8,0,3.3-0.7,4.5-2.1
		c1.2-1.4,1.8-3.7,1.8-6.9c0-3.3-0.6-5.7-1.9-7.2c-1.3-1.5-2.9-2.3-4.8-2.3c-1.8,0-3.4,0.7-4.7,2.2
		C736.7,300.5,736.1,302.7,736.1,305.4z"/>
</g>
</svg>
